<svg width="17" height="18" viewBox="0 0 17 18" fill="none" xmlns="http://www.w3.org/2000/svg">
<path d="M14.3333 2.70508H2.66667C1.74619 2.70508 1 3.38372 1 4.22086V14.8314C1 15.6685 1.74619 16.3471 2.66667 16.3471H14.3333C15.2538 16.3471 16 15.6685 16 14.8314V4.22086C16 3.38372 15.2538 2.70508 14.3333 2.70508Z" stroke="black" stroke-width="1.5" stroke-linecap="round" stroke-linejoin="round"/>
<path d="M11.834 1V3.8421" stroke="black" stroke-width="1.5" stroke-linecap="round" stroke-linejoin="round"/>
<path d="M5.16699 1V3.8421" stroke="black" stroke-width="1.5" stroke-linecap="round" stroke-linejoin="round"/>
<path d="M1 6.68359H16" stroke="black" stroke-width="1.5" stroke-linecap="round" stroke-linejoin="round"/>
<rect x="1.86035" y="7.82031" width="1.70526" height="1.70526" fill="#D9D9D9"/>
<rect x="1.86035" y="10.3789" width="1.70526" height="1.70526" fill="black"/>
<rect x="5.27051" y="7.82031" width="1.70526" height="1.70526" fill="#D9D9D9"/>
<rect x="5.27051" y="10.3789" width="1.70526" height="1.70526" fill="#D9D9D9"/>
<rect x="8.68164" y="7.82031" width="1.70526" height="1.70526" fill="#D9D9D9"/>
<rect x="8.68164" y="10.3789" width="1.70526" height="1.70526" fill="#D9D9D9"/>
<rect x="8.68164" y="12.9375" width="1.70526" height="1.70526" fill="#D9D9D9"/>
<rect x="5.27051" y="12.9375" width="1.70526" height="1.70526" fill="#D9D9D9"/>
<rect x="1.86035" y="12.9375" width="1.70526" height="1.70526" fill="#D9D9D9"/>
</svg>
