<svg width="378" height="369" viewBox="0 0 378 369" fill="none" xmlns="http://www.w3.org/2000/svg">
<path d="M132.049 290.056C131.166 290.192 130.126 290.263 129.916 291.355C129.753 292.2 129.814 293.071 130.303 293.805C131.138 295.058 132.379 295.79 133.874 295.532C135.21 295.301 137.045 294.045 137.045 292.485C137.045 291.606 136.435 290.72 135.929 290.062C135.388 289.357 134.92 288.615 134.238 288.038C133.318 287.26 132.576 287.183 131.749 288.101C131.296 288.603 130.868 289.288 130.67 289.945C130.573 290.269 130.644 290.529 130.644 290.854C130.644 291.287 130.567 290.648 130.644 290.434" stroke="#00ADB5" stroke-linecap="round" stroke-linejoin="round"/>
<path d="M136.626 292.531C137.378 293.224 138.015 293.85 139.345 293.884C140.276 293.908 141.206 293.667 142.079 293.407C142.703 293.221 144.706 292.238 143.083 292.158" stroke="#00ADB5" stroke-linecap="round" stroke-linejoin="round"/>
<path d="M144.385 286.489C143.393 287.626 142.023 289.853 142.538 291.56C142.719 292.161 142.981 292.565 143.321 293.078C144.005 294.11 145.066 293.788 146.027 293.519C146.724 293.323 147.553 292.707 147.82 292.007C148.188 291.041 147.42 289.53 146.779 288.864C146.063 288.122 145.495 287.218 144.697 286.567C144.485 286.394 144.324 286.207 144.047 286.271C143.736 286.342 143.607 286.651 144.021 286.651" stroke="#00ADB5" stroke-linecap="round" stroke-linejoin="round"/>
<path d="M214.536 130.73C213.652 130.866 212.613 130.937 212.402 132.028C212.239 132.874 212.301 133.745 212.79 134.478C213.625 135.732 214.866 136.464 216.36 136.206C217.696 135.975 219.532 134.719 219.532 133.159C219.532 132.279 218.921 131.394 218.416 130.736C217.874 130.03 217.406 129.289 216.724 128.712C215.805 127.934 215.062 127.857 214.235 128.775C213.783 129.277 213.355 129.962 213.157 130.619C213.059 130.943 213.131 131.203 213.131 131.528C213.131 131.961 213.053 131.322 213.131 131.108" stroke="#00ADB5" stroke-linecap="round" stroke-linejoin="round"/>
<path d="M219.112 133.205C219.864 133.898 220.502 134.524 221.831 134.558C222.762 134.581 223.693 134.34 224.565 134.081C225.19 133.895 227.192 132.912 225.57 132.832" stroke="#00ADB5" stroke-linecap="round" stroke-linejoin="round"/>
<path d="M226.871 127.163C225.879 128.3 224.51 130.527 225.024 132.234C225.205 132.835 225.468 133.239 225.808 133.752C226.492 134.784 227.552 134.462 228.514 134.192C229.211 133.997 230.039 133.381 230.306 132.681C230.674 131.715 229.907 130.204 229.265 129.538C228.549 128.795 227.982 127.892 227.184 127.241C226.971 127.068 226.81 126.881 226.533 126.944C226.222 127.016 226.094 127.325 226.507 127.325" stroke="#00ADB5" stroke-linecap="round" stroke-linejoin="round"/>
<path d="M138.425 97.6842C143.52 95.1665 147.638 91.0039 151.78 87.0785C155.034 83.9933 158.448 80.9447 162.04 78.2823C162.749 77.7569 163.75 76.6997 164.708 77.1503C165.658 77.5968 166.205 78.8125 166.955 79.5324C168.803 81.3052 170.465 83.4717 171.984 85.555C173.657 87.8485 171.149 89.1178 169.598 90.6194C167.837 92.325 166.155 94.0839 164.231 95.589C162.403 97.0196 160.933 98.9914 159.259 100.611C156.708 103.079 154.322 105.707 151.778 108.178C150.263 109.648 148.526 110.849 147.068 112.372C146.557 112.906 146.084 113.611 145.495 114.056C145.021 114.413 144.366 113.04 144.198 112.782C142.861 110.73 140.789 109.326 139.479 107.18C138.656 105.831 138.102 104.166 137.116 102.934C136.646 102.346 135.47 101.022 135.985 100.162C136.511 99.2849 138.005 98.8646 138.82 98.2362C139.455 97.7464 140.228 97.1417 140.951 96.8012C141.476 96.5536 141.992 96.1149 142.462 95.777C143.699 94.8878 142.388 95.2679 141.552 95.5983" stroke="#00ADB5" stroke-linecap="round" stroke-linejoin="round"/>
<path d="M139.205 101.711C142.307 103.702 145.089 106.584 147.51 109.427C147.571 109.499 148.161 109.925 148.071 110.082C147.897 110.387 145.884 109.013 145.692 108.875" stroke="#00ADB5" stroke-linecap="round" stroke-linejoin="round"/>
<path d="M142.276 98.8398C144.791 99.5867 146.289 101.008 148.32 102.528C149.224 103.205 150.145 103.817 150.957 104.613C151.338 104.987 151.609 105.48 151.962 105.883C152.444 106.436 150.473 105.241 150.241 105.104" stroke="#00ADB5" stroke-linecap="round" stroke-linejoin="round"/>
<path d="M145.932 96.6016C147.691 98.2488 149.46 99.8732 151.275 101.454C151.964 102.055 152.747 102.606 153.343 103.313C154.4 104.569 153.015 102.94 152.545 102.48" stroke="#00ADB5" stroke-linecap="round" stroke-linejoin="round"/>
<path d="M148.398 95.0332C149.704 95.8562 151.067 96.6538 152.172 97.7637C152.625 98.2189 153.002 98.7555 153.486 99.1773C154.083 99.6968 154.606 100.303 155.207 100.808C156.063 101.527 156.192 101.737 155.175 100.834" stroke="#00ADB5" stroke-linecap="round" stroke-linejoin="round"/>
<path d="M151.578 92.6113C153.018 93.7802 154.351 94.9672 155.555 96.3931C156.088 97.0246 156.518 97.7535 157.195 98.238C157.815 98.6819 158.249 98.8101 157.523 98.0888" stroke="#00ADB5" stroke-linecap="round" stroke-linejoin="round"/>
<path d="M154.634 90.1543C155.902 91.1424 157.152 92.0445 158.164 93.3172C158.628 93.8999 158.994 94.5695 159.512 95.1069C160.563 96.1981 159.84 95.648 159.08 94.9074" stroke="#00ADB5" stroke-linecap="round" stroke-linejoin="round"/>
<path d="M157.459 87.5918C159.239 89.358 160.73 91.4267 162.513 93.1712C163.714 94.3459 161.993 92.4636 161.712 92.1292" stroke="#00ADB5" stroke-linecap="round" stroke-linejoin="round"/>
<path d="M160.904 85.5615C162.403 84.927 163.957 84.1707 164.762 82.6202C164.984 82.1926 165.27 81.8204 165.361 81.3386C165.487 80.6769 165.462 80.9607 164.989 81.389" stroke="#00ADB5" stroke-linecap="round" stroke-linejoin="round"/>
<path d="M163.318 87.6994C164.506 86.5562 165.833 85.3073 166.704 83.8561C167.138 83.1322 167.965 82.2487 166.809 83.2956" stroke="#00ADB5" stroke-linecap="round" stroke-linejoin="round"/>
<path d="M167.126 90.0883C168.208 88.8685 169.171 87.7339 170.167 86.4583C170.489 86.0462 171.47 85.5114 170.29 85.8384" stroke="#00ADB5" stroke-linecap="round" stroke-linejoin="round"/>
<path d="M166.26 89.4773C167.393 88.4704 168.674 87.2981 169.572 86.0266C169.811 85.6875 169.996 85.3097 170.215 84.9573C170.582 84.367 170.606 84.5663 170.048 84.6269" stroke="#00ADB5" stroke-linecap="round" stroke-linejoin="round"/>
<path d="M142.261 103.748C147.904 101.37 149.297 94.9162 153.896 91.2664C154.456 90.8224 154.91 90.3288 155.563 90.0215C155.999 89.816 156.537 89.7176 156.935 89.4547C157.177 89.2943 159.188 87.7004 157.79 88.3588" stroke="#00ADB5" stroke-linecap="round" stroke-linejoin="round"/>
<path d="M139.636 102.025C140.269 101.227 140.831 100.543 141.635 99.9653C141.766 99.8705 141.97 99.8546 142.078 99.728C142.293 99.4773 142.618 99.1108 142.701 98.7874C143.027 97.5139 144.619 97.7494 145.465 97.1108C146.269 96.5033 147.043 95.8884 147.863 95.2882C148.767 94.6269 149.185 94.0471 149.91 93.1998C150.577 92.4215 151.224 91.6342 151.929 90.8974C152.506 90.2946 153.413 89.7464 153.781 88.9749C154.195 88.1043 155.255 87.1077 156.209 87.2691C156.536 87.3246 158.943 88.7713 157.37 87.8463" stroke="#00ADB5" stroke-linecap="round" stroke-linejoin="round"/>
<path d="M144.741 105.132C148.982 102.811 151.336 97.7522 154.2 93.9307C155.255 92.5231 156.763 91.5877 157.867 90.2046C158.34 89.613 159.383 88.9846 158.17 88.9948" stroke="#00ADB5" stroke-linecap="round" stroke-linejoin="round"/>
<path d="M146.255 106.564C150.098 104.114 152.559 99.5548 155.355 95.9418C156.627 94.2981 157.855 92.6199 159.142 90.9896C159.729 90.2463 160.753 89.782 159.439 90.5431" stroke="#00ADB5" stroke-linecap="round" stroke-linejoin="round"/>
<path d="M147.767 109.123C150.165 106.698 152.101 104.08 154.063 101.274C155.256 99.5684 156.287 97.6508 157.688 96.1147C158.492 95.2333 159.111 94.2013 159.84 93.2669C160.134 92.8905 160.337 92.4519 160.639 92.0786C161.32 91.2379 160.845 91.9985 160.371 92.4546" stroke="#00ADB5" stroke-linecap="round" stroke-linejoin="round"/>
<path d="M148.333 110.191C149.526 108.978 151.274 107.811 152.071 106.238C152.36 105.667 153.075 104.289 153.576 103.939C154.239 103.477 154.555 102.495 155.038 101.877C155.541 101.233 156.033 100.605 156.578 99.9931C157.089 99.4191 157.253 98.4117 157.886 97.9177C158.591 97.3674 158.935 96.5156 159.497 95.8586C159.984 95.29 160.911 94.7008 161.515 94.2665C161.85 94.0258 162.084 93.6978 162.463 93.5189C163.233 93.1565 162.733 93.342 162.029 93.3147" stroke="#00ADB5" stroke-linecap="round" stroke-linejoin="round"/>
<path d="M160.809 86.0195C161.796 86.2895 163.013 86.4748 163.913 87.0329C164.493 87.393 164.999 87.7545 163.941 87.0988" stroke="#00ADB5" stroke-linecap="round" stroke-linejoin="round"/>
<path d="M161.831 84.3047C163.239 84.6863 164.234 85.114 165.383 85.8906C166.134 86.3984 166.013 86.2578 165.231 85.7691" stroke="#00ADB5" stroke-linecap="round" stroke-linejoin="round"/>
<path d="M163.541 82.5859C164.75 83.2913 165.923 84.093 167.174 84.7071C167.909 85.0683 167.523 85.0431 166.956 84.7588" stroke="#00ADB5" stroke-linecap="round" stroke-linejoin="round"/>
<path d="M164.512 81.2031C165.783 81.8036 166.955 82.4016 168.126 83.157C168.66 83.5015 168.175 83.5238 167.77 83.245" stroke="#00ADB5" stroke-linecap="round" stroke-linejoin="round"/>
<path d="M161.428 85.418C162.388 84.2334 163.352 83.1109 164.227 81.8966C164.475 81.5516 165.989 79.6308 165.335 80.6139" stroke="#00ADB5" stroke-linecap="round" stroke-linejoin="round"/>
<path d="M162.438 87.4984C163.688 86.3522 165.489 84.8241 165.893 83.1117C166.011 82.6078 166.269 82.1041 166.646 81.7574C167.029 81.4059 167.429 81.2471 166.857 81.8397" stroke="#00ADB5" stroke-linecap="round" stroke-linejoin="round"/>
<path d="M161.436 87.459C162.769 85.97 163.908 84.9693 164.661 83.1351C164.856 82.6587 165.081 82.2639 165.402 81.889C165.742 81.4918 166.23 81.1198 165.573 81.8309" stroke="#00ADB5" stroke-linecap="round" stroke-linejoin="round"/>
<path d="M166.389 88.1875C167.002 88.5911 167.618 88.9651 168.256 89.3009C168.519 89.4397 168.193 89.1712 168.081 89.1276" stroke="#00ADB5" stroke-linecap="round" stroke-linejoin="round"/>
<path d="M167.587 86.1934C167.628 86.2299 170.041 88.3742 169.613 87.896" stroke="#00ADB5" stroke-linecap="round" stroke-linejoin="round"/>
<path d="M169.019 85.4219C169.551 85.953 171.181 87.5064 170.607 87.0242" stroke="#00ADB5" stroke-linecap="round" stroke-linejoin="round"/>
<path d="M165.675 89.0398C166.557 88.1879 168.491 86.5 168.965 85.1904C169.152 84.6744 170.008 84.0113 169.203 84.7208" stroke="#00ADB5" stroke-linecap="round" stroke-linejoin="round"/>
<path d="M165.788 89.2937C165.871 89.3632 167.558 91.2479 167.918 90.3341C168.102 89.8676 168.341 89.2601 168.791 89.0029C169.582 88.5519 169.728 87.1312 170.537 86.7501C171.454 86.3178 171.369 85.5928 170.514 85.3357C170.178 85.2346 170.443 84.5483 170.094 84.6022C169.775 84.6516 169.606 84.5294 169.249 84.5972" stroke="#00ADB5" stroke-linecap="round" stroke-linejoin="round"/>
<path d="M160.696 85.7578C161.275 86.9046 161.384 87.3204 162.318 87.7987C162.569 87.9278 162.898 87.7488 163.09 87.8494C163.468 88.0487 164.216 88.0529 164.498 87.6912C165.066 86.964 165.275 86.4946 166.145 86.0523C166.694 85.7732 167.136 85.1148 167.39 84.569C167.669 83.9691 168.172 83.5171 168.467 82.9149C168.592 82.6585 167.579 81.9981 167.57 81.5545C167.567 81.4287 166.364 81.425 166.164 81.3196C165.922 81.1919 165.811 81.0119 165.694 80.7461C165.524 80.3579 165.223 80.8399 164.766 80.8767" stroke="#00ADB5" stroke-linecap="round" stroke-linejoin="round"/>
<path d="M140.659 100.311C142.026 100.849 143.218 101.544 144.448 102.313C145.516 102.98 146.723 103.336 147.785 103.983C148.54 104.444 149.325 105.495 149.882 106.186C150.068 106.416 150.207 106.631 150.339 106.891C150.641 107.486 150.327 106.047 150.295 105.889" stroke="#00ADB5" stroke-linecap="round" stroke-linejoin="round"/>
<path d="M153.854 89.502C154.232 89.9147 155.767 92.1932 155.464 90.4805" stroke="#00ADB5" stroke-linecap="round" stroke-linejoin="round"/>
<path d="M157.011 247.664C157.173 248.532 157.587 249.095 157.907 249.885C158.126 250.422 158.533 250.839 158.761 251.366C159.006 251.936 159.373 252.605 159.716 253.112C160.009 253.546 160.201 253.958 160.571 254.342C161.225 255.02 161.72 255.829 162.377 256.498C163.332 257.47 164.95 258.738 166.341 258.658C166.788 258.632 167.283 258.776 167.722 258.707C168.098 258.648 168.555 258.628 168.932 258.696C169.551 258.807 170.223 258.695 170.816 258.828C171.135 258.9 171.483 258.795 171.807 258.857C172.227 258.938 172.719 258.958 173.147 258.958C174.547 258.958 175.943 258.949 177.34 258.765C178.097 258.666 178.846 258.926 179.595 258.788C180.298 258.658 181.235 258.792 181.896 258.492C182.709 258.123 183.517 257.543 184.145 256.892C184.46 256.565 184.699 256.175 184.912 255.772C185.192 255.241 185.348 254.669 185.629 254.14C186.611 252.295 187.17 250.242 187.965 248.319C188.152 247.865 188.46 247.498 188.684 247.079C188.741 246.973 188.767 246.838 188.859 246.737C189.206 246.356 188.542 246.316 188.237 246.172" stroke="#00ADB5" stroke-linecap="round" stroke-linejoin="round"/>
<path d="M156.857 247.744C157.552 246.801 158.142 246.108 159.152 245.575C159.997 245.128 160.874 244.598 161.638 244.015C162.812 243.119 164.428 242.72 165.858 242.451C167.413 242.157 168.945 241.814 170.528 241.814C171.018 241.814 171.503 241.967 171.993 241.976C172.58 241.986 173.168 242.005 173.752 242.056C174.648 242.136 175.568 242.117 176.465 242.137C177.717 242.165 178.916 242.838 180.168 242.942C180.913 243.003 181.781 243.119 182.505 243.329C182.777 243.408 183.086 243.462 183.339 243.589C183.654 243.748 183.875 244.016 184.165 244.203C185.099 244.806 186.143 245.09 187.152 245.548C187.462 245.688 187.994 245.929 188.336 245.929C188.808 245.929 188.784 246.832 188.784 245.929" stroke="#00ADB5" stroke-linecap="round" stroke-linejoin="round"/>
<path d="M188.705 246.492C188.128 247.294 187.717 247.599 186.899 248.067C186.257 248.435 185.545 248.695 184.825 248.832C184.153 248.959 183.419 249.06 182.738 249.116C182.171 249.163 181.593 249.095 181.014 249.163C179.705 249.318 178.384 249.668 177.121 250.051C175.318 250.597 173.578 250.654 171.716 250.759C169.683 250.873 167.645 250.712 165.654 250.284C164.982 250.139 164.272 250.269 163.589 250.241C162.836 250.21 162.098 249.995 161.389 249.741C161.091 249.635 160.816 249.47 160.504 249.396C160.137 249.31 159.765 249.344 159.402 249.253C158.895 249.126 158.304 248.897 157.876 248.59C157.69 248.456 157.411 248.346 157.265 248.144C157.223 248.085 157.168 247.954 157.168 247.884C157.168 247.717 157.036 247.759 157.246 247.904" stroke="#00ADB5" stroke-linecap="round" stroke-linejoin="round"/>
<path d="M171.984 254.683C172.457 254.628 173.082 254.637 172.887 254.006C172.824 253.803 172.665 253.782 172.498 253.724C171.998 253.551 171.102 253.885 170.914 254.427C170.577 255.399 171.215 256.449 172.219 256.112C172.492 256.021 172.977 255.82 173.15 255.563C173.359 255.254 173.046 255.346 172.839 255.046" stroke="#00ADB5" stroke-linecap="round" stroke-linejoin="round"/>
<path d="M170.547 253.632C171.302 253.318 171.688 253.188 172.451 253.188C172.758 253.188 172.912 253.166 173.183 253.35C173.631 253.653 173.785 254.231 173.738 254.739C173.699 255.168 173.562 255.757 173.416 256.164C173.308 256.467 173.04 256.52 172.766 256.576C172.516 256.628 171.969 256.483 171.772 256.597C171.563 256.717 170.923 256.758 170.761 256.534C170.612 256.328 170.453 256.239 170.344 255.989C170.241 255.751 170.194 255.523 170.111 255.286C169.997 254.96 169.792 254.07 170.217 253.874C170.466 253.759 170.573 253.69 170.859 253.69C170.94 253.69 171.009 253.753 171.092 253.753C171.211 253.753 170.861 253.672 170.742 253.672" stroke="#00ADB5" stroke-linecap="round" stroke-linejoin="round"/>
<path d="M171.905 250.405C172.454 249.669 172.954 248.911 173.521 248.196C173.826 247.811 174.204 247.481 174.532 247.113C175.472 246.061 176.43 244.908 177.146 243.678C177.852 242.466 178.816 241.146 179.862 240.236C180.415 239.755 180.909 239.224 181.389 238.67C181.856 238.132 182.071 237.38 182.513 236.812C182.855 236.372 185.095 233.379 185.485 235.199C185.639 235.914 184.966 236.414 184.544 236.853C184.064 237.35 183.582 237.982 183.174 238.547C182.78 239.091 182.301 239.57 181.919 240.12C181.398 240.867 180.451 241.402 180.072 242.248C179.758 242.947 179.239 243.508 178.849 244.155C178.308 245.052 177.675 245.802 177.038 246.623C176.534 247.273 175.743 247.808 175.386 248.55C175.087 249.169 174.558 249.43 174.074 249.831C173.864 250.006 173.608 250.103 173.422 250.345C173.36 250.425 173.249 250.518 173.191 250.427C173.158 250.376 173.031 250.492 173.055 250.548C173.137 250.749 172.936 250.066 172.916 250.002" stroke="#00ADB5" stroke-linecap="round" stroke-linejoin="round"/>
<path d="M171.595 250.609C171.744 250.687 172.684 251.427 172.684 250.831C172.684 250.65 172.907 250.349 172.986 250.165C173.046 250.026 172.509 250.159 172.429 250.266C172.324 250.405 172.122 250.518 172.45 250.528C172.703 250.536 172.9 250.423 173.092 250.268C173.147 250.224 173.889 250.346 173.228 250.327C172.876 250.316 172.535 250.327 172.197 250.327C171.906 250.327 172.497 250.246 172.582 250.246C172.65 250.246 172.089 250.592 171.992 250.479C171.969 250.451 171.928 250.376 172.022 250.327" stroke="#00ADB5" stroke-linecap="round" stroke-linejoin="round"/>
<path d="M159.232 247.621C159.276 247.645 160.666 248.4 160.671 248.307C160.678 248.194 160.6 248.096 160.654 247.984C160.889 247.496 161.193 247.73 161.598 247.919C161.914 248.066 161.435 246.435 162.387 247.124C162.878 247.48 163.01 247.423 162.929 246.826C162.868 246.373 163.018 246.372 163.393 246.42C163.648 246.453 163.831 246.51 163.977 246.259C164.153 245.953 164.352 245.78 164.713 245.911C165.013 246.021 165.279 246.328 165.485 245.936C165.575 245.764 165.499 245.248 165.785 245.347C165.964 245.409 166.2 245.651 166.405 245.575C166.56 245.517 166.679 245.019 166.854 245.098C167.037 245.18 167.224 245.54 167.455 245.454C167.566 245.413 167.773 245.035 167.554 245.08" stroke="#00ADB5" stroke-linecap="round" stroke-linejoin="round"/>
<path d="M164.713 246.893C165.195 247.3 167 249.473 167.53 247.85C167.625 247.56 167.64 246.984 167.906 247.46C168.125 247.853 168.455 248.125 168.813 247.754C169.051 247.508 169.156 247.09 169.496 246.961C169.808 246.842 170.036 247.45 170.295 247.095C170.504 246.809 170.403 246.317 170.097 246.145C169.996 246.089 169.968 246.283 169.924 246.329" stroke="#00ADB5" stroke-linecap="round" stroke-linejoin="round"/>
<path d="M168.871 244.395C169.622 244.261 170.568 243.988 171.139 244.686C171.404 245.009 171.379 245.422 171.204 245.788C171.076 246.056 170.733 246.19 170.513 245.927C170.333 245.712 170.704 245.357 170.837 245.226C171.292 244.776 171.967 245.497 172.11 245.986C172.229 246.394 171.152 247.341 171.282 246.936" stroke="#00ADB5" stroke-linecap="round" stroke-linejoin="round"/>
<path d="M181.512 245.763C181.735 245.684 183.17 245.204 182.895 245.996C182.753 246.402 182.213 246.62 181.858 246.754C181.69 246.817 181.256 246.806 181.538 246.552C181.782 246.332 182.125 246.229 182.445 246.256C183.693 246.361 181.948 247.848 181.59 248.053C180.894 248.452 179.947 248.871 179.218 248.385" stroke="#00ADB5" stroke-linecap="round" stroke-linejoin="round"/>
<path d="M173.851 243.389C174.147 243.888 174.503 244.39 174.756 244.915C174.843 245.095 174.466 244.633 174.378 244.453C174.354 244.405 174.192 243.876 174.177 243.879C173.987 243.923 173.943 244.823 173.892 244.989C173.649 245.774 173.051 245.473 172.464 245.414C171.753 245.343 171.435 246.071 171.042 246.535C170.728 246.906 170.604 247.02 170.817 247.462C170.99 247.82 171.062 248.167 170.817 248.491C170.627 248.744 170.388 248.903 170.159 249.112C169.948 249.303 170.25 249.271 170.21 249.157C170.102 248.843 169.437 248.909 169.219 248.924C168.409 248.979 167.585 248.768 166.79 248.82C166.368 248.848 165.971 249.092 165.553 249.157C165.128 249.222 165.689 249.604 165.849 249.715C166.122 249.904 165.312 249.312 165.015 249.166C164.516 248.921 164.055 248.731 163.796 248.189C163.537 247.645 163.309 247.274 162.872 246.875C162.721 246.738 162.703 246.529 162.776 246.342C162.947 245.91 163.326 245.558 163.701 245.325" stroke="#00ADB5" stroke-linecap="round" stroke-linejoin="round"/>
<path d="M173.773 245.001C172.798 244.295 171.994 243.991 170.848 243.831C170.445 243.775 170.015 243.486 169.753 243.166C169.52 242.882 169.652 242.957 169.377 243.343C169.001 243.87 168.722 243.397 168.243 243.535C167.507 243.748 166.876 244.457 166.13 244.589C165.925 244.625 165.975 244.27 165.719 244.423C165.289 244.68 164.96 244.924 164.458 245.005C164.154 245.055 163.577 245.262 163.624 245.646" stroke="#00ADB5" stroke-linecap="round" stroke-linejoin="round"/>
<path d="M180.384 244.996C181.324 245.09 182.277 245.078 183.214 245.182C183.544 245.219 183.712 245.357 183.944 245.581C184.153 245.783 184.48 246.259 184.78 246.285C185.213 246.322 185.437 246.135 185.841 246.004C186.084 245.926 186.861 246.004 186.606 246.004" stroke="#00ADB5" stroke-linecap="round" stroke-linejoin="round"/>
<path d="M179.684 246.084C178.673 246.775 178.132 247.823 177.05 248.453C176.836 248.577 176.18 248.818 176.229 249.228C176.265 249.524 178.456 248.596 178.789 248.423" stroke="#00ADB5" stroke-linecap="round" stroke-linejoin="round"/>
<path d="M183.456 247.059C184.006 247.483 184.48 248.09 185.167 247.874C185.353 247.816 185.742 247.793 185.867 247.664" stroke="#00ADB5" stroke-linecap="round" stroke-linejoin="round"/>
<path d="M319.355 229.47C316.516 230.035 314.451 230.886 312.651 233.286C311.511 234.807 311.761 237.201 312.508 238.814C313.74 241.471 316.767 242.971 319.498 243.102C322.68 243.253 327.104 242.284 327.756 238.348C328.106 236.237 326.162 234.242 325.252 232.512C324.512 231.104 323.397 229.207 321.839 228.611C321.203 228.368 319.726 228.452 319.263 229.109C319.057 229.403 318.791 229.713 318.64 230.042C318.518 230.309 318.649 229.363 318.62 229.088" stroke="#00ADB5" stroke-linecap="round" stroke-linejoin="round"/>
<path d="M320.552 236.717C319.786 237.125 318.542 237.396 319.213 238.291C319.366 238.495 319.585 238.484 319.77 238.291C319.929 238.126 320.73 237.261 320.138 237.056C318.931 236.639 319.373 239.137 320.235 238.031C320.699 237.438 320.05 236.853 319.469 237.215C318.776 237.646 319.324 238.399 319.868 237.745C320.277 237.252 319.95 236.875 319.505 237.337C319.106 237.751 319.511 238.41 319.903 237.851C320.306 237.277 319.847 236.791 319.362 237.295C318.8 237.877 319.408 237.816 319.806 237.432C320.208 237.046 319.496 237.103 319.265 237.406C318.728 238.11 319.569 238.01 319.704 237.406C319.903 236.519 319.02 238.557 319.449 237.003" stroke="#00ADB5" stroke-linecap="round" stroke-linejoin="round"/>
<path d="M317.424 233.756C318.241 234.874 319.078 235.934 319.764 237.053C319.954 237.362 319.803 237.673 319.907 237.667C320.294 237.645 320.691 237.572 321.103 237.572C322.046 237.572 322.789 237.095 323.699 237.095C324.8 237.095 326.418 236.798 324.598 235.855" stroke="#00ADB5" stroke-linecap="round" stroke-linejoin="round"/>
<path d="M316.504 229.374C316.332 228.472 315.492 226.285 317.056 226.517C317.617 226.6 317.993 227.202 318.323 227.582C319.181 228.572 319.09 229.766 317.699 229.851C317.335 229.873 316.823 230.622 316.412 230.089C315.947 229.486 316.421 229.527 316.504 228.801C316.558 228.327 316.259 228.366 316.131 227.9C316.032 227.543 316.237 227.152 316.32 226.893" stroke="#00ADB5" stroke-linecap="round" stroke-linejoin="round"/>
<path d="M317.055 228.324C317.047 228.552 316.708 230.605 317.428 230.269C317.669 230.157 317.877 229.993 317.975 229.734C318.069 229.483 317.969 229.333 317.863 229.087C317.588 228.455 316.792 227.472 317.035 228.896C317.188 229.795 318.155 229.585 318.23 228.727C318.288 228.071 317.491 227.193 316.984 227.942C316.625 228.472 317.264 229.641 317.638 228.822C317.827 228.407 317.374 227.35 316.892 227.868C316.397 228.399 317.14 229.519 317.627 229.066C318.109 228.618 317.782 227.251 317.26 227.773C316.782 228.25 317.499 229.199 317.863 228.472C318.268 227.662 317.374 227.051 317.096 227.9C316.848 228.658 317.622 229.474 317.801 228.441C317.938 227.654 316.544 227.236 316.544 228.176C316.544 229.042 317.29 228.953 317.29 228.165C317.29 227.344 316.493 227.529 316.825 228.218C317.158 228.907 317.603 227.684 317.229 227.296C316.792 226.843 316.214 227.543 316.728 227.98C317.079 228.277 317.558 227.043 316.968 226.813C316.459 226.615 316.741 227.693 316.917 227.45C317.191 227.071 316.771 226.818 317.06 226.893C317.315 226.959 317.933 227.1 318.108 227.333C318.245 227.516 318.803 228.536 318.803 228.801C318.803 229.611 317.608 230.048 316.922 229.845C316.43 229.699 316.285 230.06 316.457 229.941C316.876 229.651 316.963 228.896 316.963 229.183" stroke="#00ADB5" stroke-linecap="round" stroke-linejoin="round"/>
<path d="M316.963 243.02C316.49 244.062 316.07 245.109 315.512 246.094C315.387 246.315 315.152 246.768 315.124 247.026C315.049 247.722 315.723 245.366 315.86 245.023" stroke="#00ADB5" stroke-linecap="round" stroke-linejoin="round"/>
<path d="M326.254 241.016C327.419 242.541 328.703 243.629 329.611 245.303C329.7 245.468 329.855 245.599 329.979 245.727C330.392 246.156 329.212 244.813 328.829 244.355" stroke="#00ADB5" stroke-linecap="round" stroke-linejoin="round"/>
<path d="M249.098 152.07C249.826 154.921 252.639 165.52 253.312 169.393C255.164 180.056 252.258 165.506 252.25 170.216" stroke="#00ADB5" stroke-width="2" stroke-linecap="round" stroke-linejoin="round"/>
<path d="M244.163 156.68C243.914 152.341 242.976 146.319 248.841 146.939C251.601 147.231 254.641 148.93 256.361 151.203C259.019 154.715 257.617 160.16 254.744 162.955C253.216 164.443 251.732 165.188 249.732 165.75C246.342 166.703 249.017 161.821 249.563 160.482" stroke="#00ADB5" stroke-width="2" stroke-linecap="round" stroke-linejoin="round"/>
<path d="M259.42 161.977C265.248 161.654 270.613 160.464 272.698 167.02C273.909 170.83 275.385 175.459 274.375 179.474C273.462 183.102 271.496 185.37 267.902 183.825C262.766 181.616 262.773 177.458 265.568 173.312C266.598 171.785 270.54 168.728 270.542 166.943" stroke="#00ADB5" stroke-width="2" stroke-linecap="round" stroke-linejoin="round"/>
<path d="M269.921 154.904C269.722 156.494 269.719 167.746 266.783 167.854C266.233 167.874 265.77 168.171 265.29 168.419C263.441 169.374 264.566 168.515 265.256 167.521C266.819 165.271 269.984 166.102 271.569 163.116C273.291 159.872 274.083 158.277 271.616 155.768C269.886 154.009 270.646 151.018 269.285 155.232" stroke="#00ADB5" stroke-width="2" stroke-linecap="round" stroke-linejoin="round"/>
<path d="M278.527 144.699C280.779 149.958 282.838 156.808 286.452 161.387C287.406 162.597 287.942 161.544 287.928 160.601C287.91 159.41 287.586 158.209 287.253 157.082" stroke="#00ADB5" stroke-width="2" stroke-linecap="round" stroke-linejoin="round"/>
<path d="M271.984 158.371C275.558 156.913 284.333 155.437 285.828 150.807" stroke="#00ADB5" stroke-width="2" stroke-linecap="round" stroke-linejoin="round"/>
<path d="M282.976 144.867C298.466 172.971 283.374 153.218 291.247 148.078C296.027 144.958 296.425 159.663 297.75 153.302" stroke="#00ADB5" stroke-width="2" stroke-linecap="round" stroke-linejoin="round"/>
<path d="M296.813 143.902C297.375 145.645 299.262 157.151 303.192 154.523C304.949 153.347 306.996 151.107 307.334 148.904C307.698 146.54 306.274 140.536 303.053 141.182C301.583 141.477 299.125 141.549 298.165 142.997C297.238 144.398 296.653 147.678 297.766 144.234" stroke="#00ADB5" stroke-width="2" stroke-linecap="round" stroke-linejoin="round"/>
<path d="M307.788 141.115C312.181 138.19 317.344 137.23 318.012 144.119C318.096 144.983 318.112 146.072 318.494 146.868C318.937 147.791 318.027 144.612 317.164 144.099" stroke="#00ADB5" stroke-width="2" stroke-linecap="round" stroke-linejoin="round"/>
<path d="M307.464 143.755C307.663 147.356 307.167 152.235 308.789 155.613C308.844 155.728 309.23 156.61 309.035 156.127C308.651 155.171 308.492 154.522 307.767 153.486" stroke="#00ADB5" stroke-width="2" stroke-linecap="round" stroke-linejoin="round"/>
<path d="M196.287 176.357C195.679 182.211 196.74 200.232 187.155 199.111C185.156 198.877 183.341 198.53 182.392 196.578C181.398 194.533 180.576 192.754 180.477 190.431C180.355 187.578 181.45 186.232 183.674 184.944C184.454 184.493 182.778 186.321 182.63 186.498C181.652 187.662 184.969 186.243 186.236 185.951" stroke="#00ADB5" stroke-width="2" stroke-linecap="round" stroke-linejoin="round"/>
<path d="M208.591 179.17C203.743 179.64 196.9 180.594 196.118 186.884C195.694 190.296 200.584 190.711 202.707 191.873C206.355 193.87 209.123 200.382 205.031 203.248C202.186 205.241 200.034 204.182 197.266 204.381C194.455 204.583 196.412 203.508 198.079 203.213" stroke="#00ADB5" stroke-width="2" stroke-linecap="round" stroke-linejoin="round"/>
<path d="M234.862 24.291C234.474 28.3294 234.237 32.4092 233.757 36.438C233.711 36.8256 233.343 38.3558 233.778 37.1186C234.096 36.2141 233.993 35.2714 234.504 34.4136C235.208 33.2322 238.387 28.7317 239.881 29.1869C242.873 30.0993 239.853 35.8573 238.996 37.5072C238.7 38.0763 237.895 39.3107 238.312 39.9488C238.868 40.7995 239.896 37.6556 239.94 37.5594" stroke="#00ADB5" stroke-width="2" stroke-linecap="round" stroke-linejoin="round"/>
<path d="M246.682 26.9436C246.327 28.7479 243.348 37.6535 246.218 39.1286C247.028 39.5449 248.821 38.7591 249.377 38.0817C249.957 37.3763 249.654 36.2962 249.591 35.4774" stroke="#00ADB5" stroke-width="2" stroke-linecap="round" stroke-linejoin="round"/>
<path d="M240.771 27.1328C243.92 28.1043 247.159 28.7511 250.289 29.7534C251.027 29.99 251.304 30.0972 251.702 30.7807C252.321 31.8439 250.677 30.8727 250.394 30.5507" stroke="#00ADB5" stroke-width="2" stroke-linecap="round" stroke-linejoin="round"/>
<path d="M255.016 33.4504C254.293 35.7141 253.613 38.0063 252.788 40.2339C252.624 40.6768 252.6 40.8388 252.511 40.5005C252.426 40.1746 252.343 39.9826 252.483 39.6384C253.224 37.8095 254.955 35.1808 256.587 34.1592C258.349 33.056 257.387 36.7616 257.151 37.5117C256.885 38.3542 256.169 40.6632 256.983 38.429C257.467 37.0993 258.58 33.7947 260.455 34.2756C261.591 34.5669 261.329 36.1596 261.128 37.0018C260.758 38.5548 260.39 40.0974 260.018 41.6556C259.476 43.9326 259.769 42.703 260.165 41.0391" stroke="#00ADB5" stroke-width="2" stroke-linecap="round" stroke-linejoin="round"/>
<path d="M269.016 28.4908C267.885 32.7119 266.497 36.9208 265.522 41.1857C265.407 41.6859 265.158 43.538 265.926 43.7586C266.655 43.9682 269.537 42.1722 268.833 41.5496" stroke="#00ADB5" stroke-width="2" stroke-linecap="round" stroke-linejoin="round"/>
<path d="M73.1454 200.669C70.4698 205.942 67.8028 211.218 65.1199 216.487C64.3553 217.988 62.846 222.582 62.6592 220.895C62.4058 218.608 63.7533 215.405 64.3251 213.262C65.1321 210.236 66.7752 204.192 70.8696 204.214C73.9602 204.231 77.4347 208.933 77.914 211.865C78.2524 213.936 79.2365 211.598 80.5721 210.973" stroke="#00ADB5" stroke-width="2" stroke-linecap="round" stroke-linejoin="round"/>
<path d="M81.4404 217.555C83.2383 221.892 85.8888 229.224 91.3468 225.19C93.8547 223.337 92.6084 220.164 90.1327 219.157C84.0654 216.688 76.4202 223.583 74.9071 229.25C73.3943 234.915 79.3662 236.653 83.4744 237.212C85.7475 237.522 85.2377 235.507 87.1937 234.805" stroke="#00ADB5" stroke-width="2" stroke-linecap="round" stroke-linejoin="round"/>
<path d="M96.5462 232.555C91.833 230.513 85.5888 228.693 82.9327 234.941C81.6525 237.952 87.3821 238.305 89.0815 238.222C92.3273 238.064 99.5549 230.271 97.1198 232.502C94.983 234.461 92.8203 236.772 91.9417 239.664C91.3742 241.532 92.026 245.659 94.1138 242.809" stroke="#00ADB5" stroke-width="2" stroke-linecap="round" stroke-linejoin="round"/>
<path d="M114.874 236.463C108.033 237.144 99.9259 237.5 97.4989 245.472C96.3058 249.391 99.105 252.116 102.478 253.266C104.835 254.07 107.237 252.325 108.667 250.555" stroke="#00ADB5" stroke-width="2" stroke-linecap="round" stroke-linejoin="round"/>
<path d="M121.091 237.546C120.716 238.019 103.865 257.069 111.897 257.216C114.121 257.257 116.403 255.915 117.935 254.406" stroke="#00ADB5" stroke-width="2" stroke-linecap="round" stroke-linejoin="round"/>
<path d="M106.817 241.014C110.053 243.328 113.243 245.778 116.792 247.567C117.713 248.032 119.249 248.254 119.884 249.217C120.24 249.758 119.68 248.472 119.617 248.285" stroke="#00ADB5" stroke-width="2" stroke-linecap="round" stroke-linejoin="round"/>
<path d="M70.7309 88.4893C73.446 93.3056 82.0684 107.357 78.568 103.12C76.3305 100.413 74.631 96.8192 73.2124 93.616C71.7237 90.2547 70.3259 84.2568 75.9988 84.5612C80.8677 84.8225 82.8115 89.9798 83.668 94.2071C84.0459 96.0721 84.1422 97.5207 84.9487 99.2171C85.7734 100.952 85.8191 94.2692 86.1326 92.5353" stroke="#00ADB5" stroke-width="2" stroke-linecap="round" stroke-linejoin="round"/>
<path d="M88.2742 78.6933C88.4256 79.422 90.7726 96.0769 94.1791 92.8737C95.6134 91.5249 95.9286 88.2006 96.1128 86.3795C96.6884 80.6871 94.3701 79.9841 90.5174 78.7794C88.6794 78.2047 88.3028 78.2308 87.798 80.1932C86.7616 84.2233 88.3953 83.0909 90.4888 80.85" stroke="#00ADB5" stroke-width="2" stroke-linecap="round" stroke-linejoin="round"/>
<path d="M103.083 73.999C101.19 77.3074 98.7767 81.1992 100.108 85.2517C100.66 86.9326 101.945 86.4885 102.845 85.5422C104.265 84.0488 105.005 81.5943 104.926 79.5436C104.775 75.6121 102.4 72.248 99.9093 69.4547C99.5639 69.0674 96.4175 66.3771 97.0337 68.687C98.1404 72.8359 101.22 76.8266 103.367 80.4326C106.904 86.3758 107.989 84.0678 109.578 78.489" stroke="#00ADB5" stroke-width="2" stroke-linecap="round" stroke-linejoin="round"/>
<path d="M109.916 75.0273C111.091 76.1634 120.36 83.0308 120.647 76.9394C120.673 76.3868 119.994 76.2143 119.77 75.7433C119.193 74.5298 118.238 73.7294 117.717 73.0928" stroke="#00ADB5" stroke-width="2" stroke-linecap="round" stroke-linejoin="round"/>
<path d="M110.69 79.156C107.019 74.1573 101.893 68.9599 107.148 64.018C109.363 61.9357 113.957 63.5823 113.837 67.0614C113.781 68.6819 113.451 72.6888 111.208 73.1119C110.021 73.3356 109.474 72.5298 110.572 71.4041" stroke="#00ADB5" stroke-width="2" stroke-linecap="round" stroke-linejoin="round"/>
<path d="M119.068 58.4199C121.441 59.986 138.349 70.35 129.493 74.88C128.113 75.586 126.898 73.9406 126.164 72.8819C124.51 70.4953 129.329 67.1097 129.53 64.5818" stroke="#00ADB5" stroke-width="2" stroke-linecap="round" stroke-linejoin="round"/>
<path d="M132.946 50.0887C131.565 51.2586 123.643 58.5249 129.873 59.9298C133.314 60.7058 136.566 57.1494 139.181 55.3743C143.394 52.5146 144.283 58.0174 143.125 61.1233C142.416 63.0254 136.498 69.2501 138.118 64.3015" stroke="#00ADB5" stroke-width="2" stroke-linecap="round" stroke-linejoin="round"/>
<path d="M179.696 320.535C174.426 323.286 167.52 328.302 173.217 334.958C175.95 338.151 180.996 336.843 184.594 336.474C185.606 336.371 188.396 337.379 187.636 336.679C185.993 335.164 184.811 335.262 184.318 332.705" stroke="#00ADB5" stroke-width="2" stroke-linecap="round" stroke-linejoin="round"/>
<path d="M195.34 318.697C195.34 322.727 195.303 325.611 199.29 327.179C201.012 327.856 202.092 328.477 202.549 330.477C203.065 332.739 201.544 336.014 199.744 337.279C197.519 338.843 194.723 339.389 192.219 338.324C190.074 337.412 192.445 336.335 193.562 335.292" stroke="#00ADB5" stroke-width="2" stroke-linecap="round" stroke-linejoin="round"/>
<path d="M212.759 314.271C212.059 317.082 208.907 324.597 211.712 327.506C212.844 328.68 215.036 328.028 216.432 328.367C217.822 328.703 219.013 329.806 219.869 330.948C221.224 332.755 219.934 335.495 218.368 336.766C215.938 338.739 212.467 337.873 209.638 337.873C208.094 337.873 209.148 337.76 209.914 336.766" stroke="#00ADB5" stroke-width="2" stroke-linecap="round" stroke-linejoin="round"/>
<path d="M206.635 279.309C209.374 278.225 214.454 276.5 217.103 274.556C219.9 272.504 216.972 271.915 215.484 272.405C212.963 273.236 211.44 275.974 210.585 278.387C208.335 284.739 215.492 291.92 221.508 291.192C227.068 290.519 227.843 287.695 228.678 283.366" stroke="#00ADB5" stroke-width="2" stroke-linecap="round" stroke-linejoin="round"/>
<path d="M232.233 275.992C231.61 277.044 225.693 289.681 224.056 283.736" stroke="#00ADB5" stroke-width="2" stroke-linecap="round" stroke-linejoin="round"/>
<path d="M221.214 276.357C223.71 279.819 229.741 292.194 235.791 291.846C236.668 291.795 235.504 288.292 235.435 287.789" stroke="#00ADB5" stroke-width="2" stroke-linecap="round" stroke-linejoin="round"/>
<path d="M237.567 276.355C238.946 284.735 241.709 310.061 240.135 301.718C239.324 297.417 231.914 274.139 238.436 275.105C241.265 275.525 248.486 279.805 246.594 283.731C245.53 285.938 238.936 286.708 241.834 285.206" stroke="#00ADB5" stroke-width="2" stroke-linecap="round" stroke-linejoin="round"/>
<path d="M251.079 282.261C251.957 287.002 252.803 291.74 253.568 296.5C253.699 297.315 253.523 296.643 253.291 296.192C251.837 293.364 249.846 288.323 249.914 285.15C249.978 282.143 253.966 280.093 256.057 282.261" stroke="#00ADB5" stroke-width="2" stroke-linecap="round" stroke-linejoin="round"/>
<path d="M262.453 287.789C262.36 291.26 264.788 303.409 270.551 299.877C271.377 299.37 273.414 298.134 273.474 297.008C273.506 296.408 272.454 296.271 272.052 296.271C270.996 296.271 270.732 294.912 270.274 294.058" stroke="#00ADB5" stroke-width="2" stroke-linecap="round" stroke-linejoin="round"/>
<path d="M260.675 288.9C263.789 285.558 267.291 280.955 270.057 286.913C270.867 288.657 270.585 290.758 269.919 292.506C268.843 295.328 264.99 296.441 266.008 292.219" stroke="#00ADB5" stroke-width="2" stroke-linecap="round" stroke-linejoin="round"/>
<path d="M279.876 282.256C282.313 286.294 292.168 297.182 285.703 302.149C283.634 303.738 282.284 303.731 279.955 303.645C276.667 303.523 278.404 302.658 279.52 299.957" stroke="#00ADB5" stroke-width="2" stroke-linecap="round" stroke-linejoin="round"/>
<path d="M294.809 280.781C294.074 281.705 284.567 291.238 290.345 292.254C292.476 292.629 294.433 291.291 296.39 292.643C299.919 295.084 299.083 298.393 295.836 300.47C294.214 301.507 292.403 302.051 290.701 302.907C289.739 303.391 290.764 301.99 290.899 301.432" stroke="#00ADB5" stroke-width="2" stroke-linecap="round" stroke-linejoin="round"/>
<path d="M286.628 276.725C285.802 277.354 276.913 282.47 278.174 285.575C279.764 289.492 280.29 284.67 280.584 282.994" stroke="#00ADB5" stroke-width="2" stroke-linecap="round" stroke-linejoin="round"/>
<path d="M68.1123 156.087C69.6958 152.214 69.0472 148.84 69.0472 144.826C69.0472 144.045 68.9107 141.667 69.7017 141.241C70.9492 140.57 72.1149 140.122 73.5868 140.122C74.5654 140.122 75.5485 140.151 76.5266 140.122C77.5049 140.093 78.4525 139.68 79.4197 139.557C81.2194 139.329 83.0912 139.647 84.8683 139.647C86.2793 139.647 87.739 139.837 89.0962 139.837C89.3372 139.837 90.3196 139.956 90.4778 140.101C90.9623 140.544 90.8235 141.255 91.205 141.643" stroke="#00ADB5" stroke-linecap="round" stroke-linejoin="round"/>
<path d="M91.113 141.98C91.1746 143.123 91.1976 144.727 91.651 145.844C91.9447 146.567 91.7105 147.531 91.7699 148.301C91.8841 149.781 91.6717 151.223 91.6717 152.658C91.6717 154.584 91.7648 156.485 91.7648 158.4C91.7648 160.043 90.2164 159.768 88.992 159.537C87.9342 159.338 86.5147 159.738 85.4122 159.752C83.2853 159.779 81.1485 159.945 79.0183 159.945C77.2392 159.945 75.918 159.409 74.2797 158.764C73.4048 158.42 72.876 158.496 71.9363 158.496C71.0463 158.496 70.3144 158.352 69.4222 158.641C68.9002 158.81 67.9654 158.664 67.6685 158.11C67.3125 157.445 68.0203 157.157 68.0203 156.613C68.0203 156.156 67.9649 154.85 68.1134 156.082" stroke="#00ADB5" stroke-linecap="round" stroke-linejoin="round"/>
<path d="M78.7315 144.502C78.7315 144.502 79.1039 144.695 79.4764 145.081C79.8489 145.371 80.6329 145.226 81.2922 145.226C81.639 145.226 82.0054 144.946 82.3164 144.803C82.9465 144.512 82.5707 145.058 82.4199 145.371C82.2529 145.718 82.4436 146.362 82.7458 146.579C83.2444 146.937 83.7377 146.628 84.2253 146.375C84.4277 146.27 84.3722 146.221 84.4348 146.364C84.5198 146.558 84.5047 146.839 84.5047 147.051C84.5047 147.532 84.4742 148.332 84.2253 148.752C83.8979 149.303 83.5671 149.661 83.0407 150.066C82.5206 150.467 81.8334 151.166 81.1421 151.166C79.7912 151.166 78.3573 150.861 77.6813 149.498C77.3948 148.92 76.8692 148.446 76.8692 147.786C76.8692 147.235 76.6933 146.574 76.8692 146.047C77.0823 145.409 77.6141 144.803 77.4279 144.803C77.5228 144.831 78.359 144.309 78.7315 144.502Z" stroke="#00ADB5" stroke-linecap="round" stroke-linejoin="round"/>
<path d="M80.2674 144.163C80.7912 143.962 81.9877 143.54 82.2694 142.883C82.487 142.375 81.7676 142.279 81.3848 142.279C80.9204 142.279 80.3702 142.945 80.2467 143.366C80.178 143.6 80.1127 143.84 80.0449 144.077C80.0123 144.191 80.0559 144.274 80.0786 144.38C80.0958 144.461 80.8062 144.074 80.7795 143.963" stroke="#00ADB5" stroke-linecap="round" stroke-linejoin="round"/>
<path d="M89.3222 155.026L69.203 155.485C66.9413 155.536 65.1348 157.384 65.1348 159.646C65.1348 161.946 66.9986 163.809 69.2978 163.809H89.4222C91.8479 163.809 93.8144 161.843 93.8144 159.417C93.8144 156.952 91.7864 154.97 89.3222 155.026Z" stroke="#00ADB5"/>
<path d="M73.5762 155.377C73.8854 155.874 74.1524 156.471 74.5073 156.931C74.6858 157.163 74.6571 157.116 75.0031 156.983C75.5807 156.761 76.2351 156.92 76.8377 156.92C77.3668 156.92 77.9819 156.633 78.4961 156.777C79.0917 156.943 79.794 156.626 80.3803 156.611C81.0868 156.594 81.7602 156.663 82.4628 156.663C82.8864 156.663 83.2994 156.406 83.6914 156.406C83.9189 156.406 84.5673 156.593 84.5839 156.16C84.5921 155.949 84.6831 155.744 84.6831 155.531C84.6831 155.243 84.5168 155.368 84.2368 155.223" stroke="#00ADB5" stroke-linecap="round" stroke-linejoin="round"/>
<path d="M174.442 49.8009C174.825 49.2967 175.557 48.3637 174.531 48.1987C174.299 48.1614 174.082 48.0199 173.854 48.127C173.152 48.4569 172.5 49.1833 172.5 50.0468C172.5 51.4262 173.959 51.7249 175.018 51.7071C176.806 51.6769 177.349 49.8704 177.981 48.4071C178.619 46.9289 179.327 45.4748 179.989 44.0072C180.737 42.3466 181.965 41.0237 182.742 39.3784C183.075 38.6728 183.51 38.0515 183.939 37.4073C184.604 36.408 185.079 35.3998 185.554 34.2918C185.945 33.3827 186.378 32.5526 186.856 31.6922C187.049 31.3442 186.977 30.8112 187.347 31.1832C187.627 31.4656 188.074 31.6511 188.452 31.7229C190.104 32.0367 191.623 32.3688 193.324 32.2285C195.045 32.0866 196.765 31.8309 198.459 31.4906C199.034 31.3749 198.789 31.5142 198.517 31.8766C198.057 32.4914 197.664 33.1428 197.222 33.7657C196.647 34.578 196.444 35.5563 196.104 36.4849C195.73 37.5058 195.284 38.4808 194.927 39.5184C194.236 41.5237 193.228 43.3524 191.98 45.0354C191.257 46.0108 190.365 47.7143 189.011 47.6453C186.916 47.5386 188.331 43.2618 189.332 42.4255C189.87 41.9753 190.459 42.46 190.525 43.0643C190.615 43.8947 190.341 45.0326 189.564 45.4385C188.744 45.8668 188.115 45.8154 188.746 44.7109C189.128 44.0426 189.355 44.7781 189.511 44.4513" stroke="#00ADB5" stroke-width="2" stroke-linecap="round" stroke-linejoin="round"/>
<path d="M332.301 198.779C332.683 198.275 333.416 197.342 332.389 197.177C332.157 197.14 331.94 196.998 331.712 197.106C331.01 197.435 330.358 198.162 330.358 199.025C330.358 200.405 331.817 200.703 332.876 200.686C334.664 200.655 335.208 198.849 335.839 197.386C336.477 195.907 337.185 194.453 337.847 192.986C338.596 191.325 339.824 190.002 340.601 188.357C340.934 187.651 341.369 187.03 341.797 186.386C342.463 185.386 342.937 184.378 343.413 183.27C343.803 182.361 344.236 181.531 344.714 180.671C344.908 180.323 344.835 179.79 345.205 180.162C345.486 180.444 345.932 180.63 346.31 180.701C347.962 181.015 349.481 181.347 351.183 181.207C352.903 181.065 354.623 180.809 356.317 180.469C356.893 180.353 356.647 180.493 356.376 180.855C355.915 181.47 355.522 182.121 355.081 182.744C354.505 183.557 354.303 184.535 353.962 185.463C353.588 186.484 353.143 187.459 352.785 188.497C352.094 190.502 351.086 192.331 349.839 194.014C349.116 194.989 348.223 196.693 346.869 196.624C344.775 196.517 346.189 192.24 347.19 191.404C347.729 190.954 348.318 191.439 348.384 192.043C348.474 192.873 348.199 194.011 347.422 194.417C346.602 194.845 345.974 194.794 346.605 193.689C346.986 193.021 347.213 193.757 347.37 193.43" stroke="#00ADB5" stroke-width="2" stroke-linecap="round" stroke-linejoin="round"/>
<path d="M315.423 111.883C313.671 108.588 313.774 107.647 314.174 104.331C314.394 102.505 314.478 100.72 314.924 98.9239C315.72 95.7111 315.979 91.3848 313.485 88.7981C308.577 83.7081 299.439 90.9469 302.206 97.4046C303.259 99.8623 305.079 101.682 306.393 104C306.921 104.93 307.216 105.938 307.901 106.806C308.558 107.64 309.375 108.677 309.375 109.711C309.375 110.585 309.123 111.718 309.719 112.491C310.542 113.558 310.25 113.009 311.468 113.009C312.306 113.009 313.541 112.318 314.217 111.758C314.699 111.357 314.958 112.515 314.958 111.4C314.958 110.443 314.661 111.239 315.268 111.239" stroke="#00ADB5" stroke-linecap="round" stroke-linejoin="round"/>
<path d="M311.546 114.942C313.205 114.429 317.796 113.284 316.733 114.701C315.451 116.411 314.903 115.554 313.33 115.916C312.525 116.102 311.741 118.677 312.632 118.732C313.904 118.809 314.748 117.033 316.044 117.033C317.223 117.033 317.139 118.644 316.431 119.214C315.497 119.968 314.423 119.158 313.795 120.331C312.801 122.186 315.515 121.884 316.285 121.448C317.061 121.009 317.799 120.324 318.37 119.929" stroke="#00ADB5" stroke-linecap="round" stroke-linejoin="round"/>
<path d="M315.424 111.357C315.403 111.497 315.381 112.443 315.017 112.443C314.821 112.443 314.731 112.32 314.551 112.423C314.341 112.545 314.143 112.83 313.942 112.997C313.764 113.145 313.237 113.127 313.136 113.31C312.971 113.61 312.635 113.775 312.322 113.811C311.916 113.857 311.766 114.069 311.333 113.969C311.201 113.939 311.188 113.851 311.064 113.851C310.873 113.851 310.79 113.946 310.646 113.779C310.486 113.595 310.225 113.509 310.148 113.23C310.044 112.85 309.66 112.65 310.228 112.886" stroke="#00ADB5" stroke-linecap="round" stroke-linejoin="round"/>
<path d="M307.938 95.4355C308.631 95.4394 309.205 95.4858 309.441 96.2488C309.602 96.768 309.605 97.2782 309.605 97.8173C309.605 98.3414 309.295 98.7628 309.295 99.2562C309.295 99.9084 309.798 99.8016 310.223 100C310.625 100.188 310.916 100.345 311.134 100.764C311.35 101.18 311.187 101.984 311.158 102.436C311.133 102.824 310.955 103.651 311.214 103.979C311.355 104.158 312.125 104.434 311.621 104.042" stroke="#00ADB5" stroke-linecap="round" stroke-linejoin="round"/>
<path d="M302.085 102.713C301.529 103.096 300.963 103.416 300.342 103.658C300.082 103.759 299.739 103.94 299.797 103.517" stroke="#00ADB5" stroke-linecap="round" stroke-linejoin="round"/>
<path d="M300.069 97.1621C299.085 97.4079 298.107 97.685 297.131 97.9575C296.969 98.0028 297.341 97.5772 297.355 97.5643" stroke="#00ADB5" stroke-linecap="round" stroke-linejoin="round"/>
<path d="M299.794 91.889C298.774 91.7353 297.758 91.5446 296.744 91.3573C296.277 91.271 296.079 91.3345 296.343 90.9238" stroke="#00ADB5" stroke-linecap="round" stroke-linejoin="round"/>
<path d="M305.302 86.3099C304.496 86.163 303.798 86.0216 303.07 85.644C302.729 85.4673 302.401 85.2549 302.045 85.1123C301.621 84.9428 301.612 84.9944 302.084 84.7012" stroke="#00ADB5" stroke-linecap="round" stroke-linejoin="round"/>
<path d="M312.321 82.6855C312.439 83.5391 312.4 84.0503 312.067 84.8238C311.888 85.2407 311.736 85.7677 311.647 86.218C311.617 86.373 311.6 86.4613 311.499 86.5777C311.461 86.6213 311.6 86.1033 311.624 86.0236" stroke="#00ADB5" stroke-linecap="round" stroke-linejoin="round"/>
<path d="M318.253 86.1094C317.996 86.9983 317.629 87.8509 317.409 88.7414C317.297 89.1919 317.367 89.2192 317.555 88.7637" stroke="#00ADB5" stroke-linecap="round" stroke-linejoin="round"/>
<path d="M320.734 92.498C319.853 93.2889 319.131 94.2706 318.447 95.2418C318.361 95.3635 318.262 95.4067 318.167 95.5054C317.951 95.7296 318.324 95.2232 318.369 95.1524" stroke="#00ADB5" stroke-linecap="round" stroke-linejoin="round"/>
<path d="M123.308 173.172C124.597 179.195 126.048 185.232 126.901 191.346C127.377 194.762 126.332 189.833 126.202 189.136C125.92 187.628 125.597 186.292 125.597 184.749C125.597 181.645 125.517 178.506 125.295 175.398C125.14 173.223 122.563 166.745 125.82 172.149C129.14 177.66 131.485 183.752 133.738 189.763C134.049 190.591 134.479 191.376 134.82 192.171C135.006 192.605 131.52 189.072 130.177 188.312" stroke="#00ADB5" stroke-width="2" stroke-linecap="round" stroke-linejoin="round"/>
<path d="M121.305 186.53C125.026 184.99 133.23 182.085 135.615 177.756C136.614 175.943 136.42 176.781 133.612 177.327" stroke="#00ADB5" stroke-width="2" stroke-linecap="round" stroke-linejoin="round"/>
<path d="M132.469 166.35C135.34 172.246 137.42 178.524 138.209 185.069C138.282 185.675 138.418 186.341 138.829 186.767C138.905 186.847 137.452 184.024 137.048 183.271" stroke="#00ADB5" stroke-width="2" stroke-linecap="round" stroke-linejoin="round"/>
<path d="M132.469 166.051C134.695 167.434 142.874 172.544 137.541 175.798C137.073 176.083 136.524 176.347 136.189 176.804C135.481 177.771 135.395 178.055 135.903 176.738" stroke="#00ADB5" stroke-width="2" stroke-linecap="round" stroke-linejoin="round"/>
<path d="M139.907 163.082C140.856 169.747 142.483 177.071 142.483 183.863C142.483 185.362 142.241 182.585 141.911 181.785" stroke="#00ADB5" stroke-width="2" stroke-linecap="round" stroke-linejoin="round"/>
<path d="M146.493 174.956C148.065 179.814 148.873 182.677 144.267 184.093C142.693 184.576 144.595 182.205 144.999 181.916C146.376 180.926 147.748 177.742 146.207 176.143C145.594 175.507 144.126 176.31 143.695 175.549C143.059 174.428 144.484 172.304 145.348 171.756C147.833 170.181 147.521 172.401 146.493 171.69" stroke="#00ADB5" stroke-width="2" stroke-linecap="round" stroke-linejoin="round"/>
<path d="M232.466 84.8139C233.414 89.9916 237.32 105.11 235.048 100.397C234.803 99.8887 234.599 99.4582 234.578 98.8815C234.502 96.7496 234.349 94.5206 233.64 92.497C233.046 90.8044 233.17 89.0497 233.17 87.2487C233.17 86.8879 232.579 84.0489 232.635 84.0294C233.233 83.8228 235.698 86.9296 236.143 87.4651C238.397 90.1737 240.675 93.2864 242.286 96.4603C243.115 98.0939 243.364 98.6791 241.386 98.9356" stroke="#00ADB5" stroke-width="2" stroke-linecap="round" stroke-linejoin="round"/>
<path d="M232.232 95.2753C234.435 94.116 236.534 93.1896 238.805 92.3535" stroke="#00ADB5" stroke-width="2" stroke-linecap="round" stroke-linejoin="round"/>
<path d="M238.568 85.0526C240.824 88.5571 242.972 92.2862 245.597 95.5222C245.972 95.9836 246.758 96.822 246.758 95.7386C246.758 94.2602 245.969 92.7324 245.61 91.3289C245.038 89.084 244.504 86.8287 244.019 84.5656C243.551 82.381 243.881 83.1967 244.672 84.8362C245.981 87.553 247.36 90.0276 249.184 92.4381C250.412 94.0621 250.54 93.1577 250.54 91.7347C250.54 89.1498 249.323 87.0242 248.427 84.7009C247.47 82.2191 247.534 78.8312 246.445 76.5714C246.021 75.6926 245.963 78.4777 245.845 79.4526" stroke="#00ADB5" stroke-width="2" stroke-linecap="round" stroke-linejoin="round"/>
<path d="M251.249 76.2871C251.309 76.5731 252.183 83.6617 253.727 82.861C254.403 82.5102 254.569 81.4367 255.266 81.0755C256.394 80.4902 257.614 81.5268 258.056 82.5364C259.226 85.2059 257.88 88.2977 255.761 89.9219C252.826 92.1718 253.831 88.1214 253.831 87.0001" stroke="#00ADB5" stroke-width="2" stroke-linecap="round" stroke-linejoin="round"/>
<path d="M252.656 75.7994C252.234 76.9968 251.466 82.5558 251.235 80.3985C251.092 79.0668 251.345 78.0542 251.482 76.7733C251.808 73.735 254.049 76.1791 253.126 74.582" stroke="#00ADB5" stroke-width="2" stroke-linecap="round" stroke-linejoin="round"/>
<path d="M237.001 235.709C236.923 235.56 233.536 229.511 233.829 229.338C234.236 229.097 234.994 229.331 235.472 229.145C236.886 228.595 238.024 227.46 239.187 226.522C240.41 225.535 242.086 233.278 242.458 234.909C242.909 236.882 244.082 239.505 241.887 240.644C239.908 241.67 237.304 241.36 235.144 241.311C231.619 241.229 229.183 235.228 228.772 232.242C228.473 230.067 225.569 223.087 228.686 221.691C229.521 221.318 230.938 221.573 231.844 221.573C233.139 221.573 234.27 220.773 235.587 220.773C237.683 220.773 238.316 223.488 236.487 220.506" stroke="#00ADB5" stroke-width="2" stroke-linecap="round" stroke-linejoin="round"/>
<path d="M242.917 222.64C243.283 224.021 244.458 231.687 247.546 229.723C248.134 229.35 248.562 228.444 248.775 227.797C249.344 226.071 249.464 224.629 248.189 223.307C247.234 222.317 245.39 220.295 244.003 220.24C240.563 220.103 243.598 224.099 243.175 223.441" stroke="#00ADB5" stroke-width="2" stroke-linecap="round" stroke-linejoin="round"/>
<path d="M243.428 210.365C245.968 214.531 249.801 219.111 251.342 223.909C251.539 224.521 251.546 224.937 251.914 225.509C252.469 226.373 252.731 227.627 253.257 226.31C254.017 224.403 255.751 222.71 257.114 221.242C258.795 219.431 259.025 219.967 256.028 219.967" stroke="#00ADB5" stroke-width="2" stroke-linecap="round" stroke-linejoin="round"/>
<path d="M261.173 209.035C260.854 209.783 256.009 219.727 260.687 217.467C261.618 217.017 262.567 216.318 262.444 215.17C262.326 214.063 261.435 213.194 260.973 212.236C260.712 211.694 259.668 209.086 260.03 209.835C261.104 212.063 262.546 216.031 264.144 217.689C266.006 219.62 267.121 217.591 265.287 216.504" stroke="#00ADB5" stroke-width="2" stroke-linecap="round" stroke-linejoin="round"/>
<path d="M263.999 210.104C271.156 221.88 262.099 208.667 264.184 206.355C266.202 204.117 268.586 208.414 269.342 209.778C270.658 212.154 271.953 218.318 269.913 211.971" stroke="#00ADB5" stroke-width="2" stroke-linecap="round" stroke-linejoin="round"/>
<path d="M272.999 199.966C272.877 200.411 269.038 211.617 271.913 210.576C273.135 210.134 274.362 209.132 275.013 207.983C275.765 206.657 276.116 204.838 275.571 203.375C275.199 202.377 274.797 201.311 274.285 200.381C273.068 198.172 276.348 204.999 277.328 207.331C278.763 210.746 282.221 222.719 274.07 220.341C270.515 219.304 273.863 213.569 273.513 213.569" stroke="#00ADB5" stroke-width="2" stroke-linecap="round" stroke-linejoin="round"/>
<path d="M171.791 144.863C173.069 144.498 174.158 144.131 175.057 143.083C175.411 142.669 175.459 142.142 175.64 141.641C175.876 140.99 175.583 140.158 175.382 139.534C175.222 139.034 176.099 138.754 176.412 138.733C176.95 138.697 177.362 139.052 177.879 139.084C178.501 139.122 179.164 139.328 179.595 139.831C179.888 140.173 180.28 140.253 180.603 140.549C180.91 140.83 181.153 141.32 181.375 141.68C182.017 142.722 182.199 143.936 182.386 145.127C182.475 145.699 182.529 146.32 182.437 146.897C182.326 147.586 182.444 148.248 182.182 148.908C182 149.365 181.711 149.969 181.298 150.238C180.875 150.515 180.481 150.614 180.373 151.188C180.147 152.386 180.727 153.559 180.504 154.767C180.306 155.84 178.938 156.004 178.093 156.176C177.509 156.295 176.449 156.48 175.886 156.163C174.839 155.572 174.08 154.834 173.303 153.894C172.614 153.06 172.354 151.842 172.263 150.777C172.17 149.69 172.169 148.51 172.193 147.41C172.208 146.68 172.413 145.948 172.48 145.22C172.535 144.625 172.716 144.577 172.422 145.339" stroke="#00ADB5" stroke-linecap="round" stroke-linejoin="round"/>
<path d="M179.196 139.455C179.628 138.3 180.103 137.146 180.434 135.955C180.582 135.42 180.618 134.853 180.804 134.331C181.019 133.724 181.126 133.037 181.218 132.402C181.285 131.947 181.317 131.141 181.719 130.854C182.012 130.645 182.18 130.166 182.494 129.915C182.898 129.592 183.471 129.291 183.757 128.859C184.038 128.436 184.338 127.56 184.101 127.07C183.97 126.798 183.988 126.504 183.859 126.236C183.691 125.887 183.54 125.604 183.412 125.227C183.301 124.897 182.951 124.238 183.358 124.003C184.355 123.429 184.424 124.333 184.733 125.158C184.893 125.584 184.917 126.104 185.065 126.547C185.166 126.85 185.345 126.631 185.482 126.805C185.689 127.067 185.699 127.395 185.855 127.678C186.089 128.103 185.815 128.963 185.696 129.379C185.476 130.148 185.25 130.843 184.924 131.582C184.085 133.483 182.717 135.085 181.78 136.928C181.423 137.629 181.137 138.335 180.963 139.111C180.864 139.552 180.574 139.971 180.574 140.437C180.574 140.862 180.473 141.08 180.689 140.408" stroke="#00ADB5" stroke-linecap="round" stroke-linejoin="round"/>
<path d="M183.673 125.098C182.942 125.214 182.144 125.259 181.491 125.597C181.401 125.644 181.541 125.523 181.606 125.515C182.481 125.408 183.437 124.598 184.234 124.205C184.827 123.912 185.637 123.252 186.313 123.252C186.509 123.252 185.663 123.817 185.567 123.907" stroke="#00ADB5" stroke-linecap="round" stroke-linejoin="round"/>
<path d="M182.927 126.41C183.74 125.919 185.157 125.387 185.752 124.564C185.81 124.484 185.853 124.376 185.937 124.326C186.233 124.151 185.711 124.346 185.625 124.385" stroke="#00ADB5" stroke-linecap="round" stroke-linejoin="round"/>
<path d="M183.504 127.179C184.48 126.791 186.265 126.447 186.802 125.333C186.879 125.172 186.707 125.214 186.604 125.214" stroke="#00ADB5" stroke-linecap="round" stroke-linejoin="round"/>
<path d="M184.537 127.061C184.475 128.426 184.488 129.815 183.737 130.984C183.37 131.554 183.116 131.934 182.987 132.601C182.849 133.315 182.699 133.911 182.384 134.563C182.074 135.206 181.711 135.732 181.405 136.349C181.247 136.669 180.857 136.978 180.933 137.362C180.972 137.556 180.879 137.73 180.818 137.911C180.639 138.448 180.304 138.922 179.989 139.386C179.776 139.701 179.778 140.267 180.059 139.684" stroke="#00ADB5" stroke-linecap="round" stroke-linejoin="round"/>
<path d="M179.885 138.079C180.403 138.196 181.191 138.555 181.722 138.555C181.732 138.555 181.271 137.978 181.205 137.9" stroke="#00ADB5" stroke-linecap="round" stroke-linejoin="round"/>
<path d="M180.229 135.635C180.961 135.959 181.695 136.281 182.423 136.617C182.593 136.696 182.583 136.708 182.525 136.647C182.399 136.516 182.292 136.375 182.18 136.23" stroke="#00ADB5" stroke-linecap="round" stroke-linejoin="round"/>
<path d="M180.921 134.027C181.803 134.312 182.685 134.618 183.578 134.868C183.678 134.896 183.817 134.951 183.721 134.848C183.529 134.641 183.307 134.459 183.102 134.266" stroke="#00ADB5" stroke-linecap="round" stroke-linejoin="round"/>
<path d="M181.379 132.004C182.384 132.513 183.384 133.063 184.415 133.516C184.584 133.59 184.641 133.645 184.606 133.506C184.559 133.317 184.489 133.139 184.421 132.957" stroke="#00ADB5" stroke-linecap="round" stroke-linejoin="round"/>
<path d="M182.641 130.576C182.732 130.622 185.512 132.185 185.281 131.588" stroke="#00ADB5" stroke-linecap="round" stroke-linejoin="round"/>
<path d="M183.215 129.623C184.054 129.828 184.901 130.014 185.741 130.159" stroke="#00ADB5" stroke-linecap="round" stroke-linejoin="round"/>
<path d="M184.135 128.668C184.518 128.687 184.9 128.707 185.283 128.728" stroke="#00ADB5" stroke-linecap="round" stroke-linejoin="round"/>
<path d="M176.555 146.537C176.156 146.701 173.699 147.335 173.685 148.039C173.679 148.314 173.685 148.589 173.716 148.863C173.815 149.711 174.384 150.155 175.081 150.56C175.968 151.075 176.922 151.091 177.888 150.798C178.806 150.519 179.403 149.466 179.036 148.562C178.96 148.374 179.224 148.336 179.052 148.118C178.885 147.907 178.775 148.03 178.507 148.085" stroke="#00ADB5" stroke-linecap="round" stroke-linejoin="round"/>
<path d="M175.35 148.736C175.806 147.537 176.376 146.34 176.641 145.074C176.711 144.742 176.796 144.464 176.97 144.164C177.336 143.531 177.658 142.856 177.875 142.153C178.082 141.486 178.095 140.827 178.367 140.175C178.464 139.942 179.042 139.244 178.794 139.566" stroke="#00ADB5" stroke-linecap="round" stroke-linejoin="round"/>
<path d="M179.888 140.164C179.675 141.543 179.355 142.863 179.129 144.226C179.004 144.982 178.797 145.613 178.797 146.41C178.797 146.979 178.993 147.453 178.867 148.024C178.722 148.681 178.592 148.357 178.338 147.905" stroke="#00ADB5" stroke-linecap="round" stroke-linejoin="round"/>
<path d="M179.313 140.164C178.914 141.025 178.05 142.441 178.05 143.528C178.05 144.147 178.089 144.803 178.047 145.43C177.997 146.176 177.436 147.144 177.1 147.786C176.988 147.999 176.843 148.163 176.774 148.394C176.689 148.683 176.75 148.7 176.558 148.381" stroke="#00ADB5" stroke-linecap="round" stroke-linejoin="round"/>
<path d="M175.177 147.485C176.154 148.211 177.88 149.691 179.08 148.411C179.268 148.212 179.538 147.786 179.642 147.532C179.784 147.184 179.324 147.479 179.023 147.545" stroke="#00ADB5" stroke-linecap="round" stroke-linejoin="round"/>
<path d="M176.325 146.415C176.883 146.396 178.01 146.553 178.551 146.263C178.569 146.253 178.51 146.27 178.494 146.283C178.44 146.327 178.33 146.255 178.277 146.236" stroke="#00ADB5" stroke-linecap="round" stroke-linejoin="round"/>
<path d="M176.958 144.215C177.367 144.327 178.848 144.981 178.91 144.274" stroke="#00ADB5" stroke-linecap="round" stroke-linejoin="round"/>
<path d="M177.646 142.422C178.153 142.766 180.211 144.356 179.884 142.66" stroke="#00ADB5" stroke-linecap="round" stroke-linejoin="round"/>
<path d="M178.221 141.592C178.737 141.731 179.254 141.87 179.771 142.009" stroke="#00ADB5" stroke-linecap="round" stroke-linejoin="round"/>
<path d="M180.746 141.592C181.385 142.216 182.66 143.669 182.698 144.761C182.729 145.652 182.698 146.513 182.698 147.414C182.698 148.069 182.819 148.769 182.755 149.392C182.672 150.21 181.461 150.22 181.751 151.182C181.848 151.503 181.763 151.692 182.035 151.923C182.269 152.121 182.439 152.352 182.526 152.667C182.728 153.402 182.325 154.067 181.837 154.572C181.532 154.889 181.135 155.526 180.775 155.734C180.597 155.836 180.233 155.763 180.029 155.763C179.84 155.763 179.457 155.891 179.286 155.972C179.034 156.09 178.713 155.881 178.393 156.001" stroke="#00ADB5" stroke-linecap="round" stroke-linejoin="round"/>
<path d="M171.791 145.045C172.023 145.842 172.195 146.506 172.582 147.189C172.741 147.469 172.719 147.724 172.649 148.052C172.567 148.433 172.299 149.327 172.509 149.719C172.831 150.321 172.824 150.958 172.824 151.625C172.824 152.267 173.792 152.546 174.11 152.875C174.581 153.364 174.377 153.988 175.152 154.201C175.322 154.248 175.587 154.251 175.72 154.364C175.821 154.449 175.939 154.663 176.071 154.688C176.344 154.739 176.71 154.683 176.958 154.797C177.164 154.892 177.315 155.029 177.503 155.138C177.711 155.257 177.994 155.123 178.221 155.24C178.993 155.641 178.648 155.26 178.106 154.81" stroke="#00ADB5" stroke-linecap="round" stroke-linejoin="round"/>
<path d="M114.665 115.139C113.131 117.174 106.544 125.321 112.156 127.165C113.898 127.737 116.165 126.422 118.042 126.612C120.697 126.88 122.189 129.221 122.842 131.651C123.594 134.45 119.445 139.427 121.44 140.932C124.856 143.509 129.776 139.151 132.599 142.612C134.199 144.573 132.517 147.423 133.508 142.796" stroke="#00ADB5" stroke-linecap="round" stroke-linejoin="round"/>
<path d="M191.703 83.4205C193.182 85.4525 196.7 90.0298 198.024 92.6398C199.15 94.8614 197.731 94.7723 196.523 93.8895C195.078 92.834 195.281 90.5889 195.693 89.034C197.085 83.7848 206.092 78.959 207.11 87.0263C207.467 89.86 205.025 94.6248 201.698 93.5003C197.305 92.0158 197.585 85.0626 200.907 82.4781C204.306 79.8346 209.875 82.8722 209.875 87.1902C209.875 91.9841 204.381 93.4684 202.251 89.2389C200.314 85.3949 203.746 81.3737 207.426 80.7982C208.779 80.5865 212.275 82.2082 209.835 83.0518" stroke="#00ADB5" stroke-linecap="round" stroke-linejoin="round"/>
<path d="M266.012 119.928C263.71 122.301 256.434 127.833 262.556 129.988C266.118 131.241 269.415 129.186 271.622 126.382C274.057 123.287 274.47 118.394 270.595 116.384C267.581 114.821 264.983 112.31 262.457 116.241" stroke="#00ADB5" stroke-linecap="round" stroke-linejoin="round"/>
<path d="M344.584 152.379C340.188 155.095 333.513 158.375 340.318 160.942C341.364 161.337 342.045 161.08 342.964 160.41C346.366 157.93 346.566 156.937 346.362 153.116C346.226 150.586 342.66 151.164 341.029 152.01C338.624 153.257 336.946 155.753 335.972 158.279C334.662 161.678 341.437 161.47 342.372 157.377C342.958 154.812 340.129 151.168 338.185 154.304C335.609 158.46 339.539 162.177 342.016 157.828C344.389 153.663 338.845 151.946 337.355 156.804C335.396 163.191 347.043 156.256 342.806 154.058C340.281 152.749 336.017 161.066 340.673 158.996C346.327 156.482 340.002 152.779 340.002 158.648C340.002 163.41 347.596 156.498 342.648 154.632C341.517 154.205 340.401 157.955 341.207 158.791C342.608 160.245 345.044 156.48 344.92 155.124C344.386 149.304 338.893 164.1 345.433 157.316C346.927 155.766 346.866 152.966 344.387 154.612C342.923 155.583 341.998 159.706 344.762 158.75C347.417 157.832 347.416 152.732 344.564 153.915C342.824 154.637 342.194 157.193 340.318 156.804" stroke="#00ADB5" stroke-linecap="round" stroke-linejoin="round"/>
<path d="M306.185 190.361C305.451 191.202 293.736 206.194 299.627 198.556C300.975 196.81 302.212 195.091 304.052 193.865C305.186 193.109 306.278 192.642 307.252 191.632C308.316 190.527 306.807 190.6 306.56 192.902C306.346 194.906 306.51 203.657 306.185 203.637C303.989 203.503 302.549 201.261 300.516 200.523C299.427 200.128 296.198 200.697 297.099 199.949C299.301 198.122 306.046 192.882 304.052 194.95C302.541 196.517 299.436 202.406 300.496 200.482C301.25 199.114 303.289 194.656 302.985 195.401C302.36 196.937 301.272 199.567 301.366 201.261C301.454 202.868 304.532 198.913 304.723 198.515C306.15 195.556 303.198 202.211 304.249 200.625C305.196 199.197 308.396 195.566 306.106 199.13C305.605 199.91 308.479 196.312 307.963 197.081C307.813 197.304 306.51 199.571 307.271 198.782C309.997 195.954 305.981 198.894 305.474 198.106" stroke="#00ADB5" stroke-linecap="round" stroke-linejoin="round"/>
<path d="M282.366 251.579C283.61 249.741 290.722 241.631 284.874 241.274C283.886 241.214 281.848 240.881 281.022 241.582C279.06 243.247 279.911 247.74 282.563 248.24C286.08 248.903 289.376 243.914 285.565 241.991C281.584 239.982 272.185 248.052 276.242 251.374C284.231 257.916 291.455 238.906 281.121 241.643C271.748 244.125 280.006 254.139 284.262 247.687C288.819 240.779 274.767 240.719 277.25 248.445C278.474 252.255 282.493 250.416 283.215 247.338C284.273 242.827 279.947 244.69 279.877 247.81C279.802 251.154 284.769 245.103 281.793 245.372C279.642 245.566 279.43 248.629 277.744 248.629" stroke="#00ADB5" stroke-linecap="round" stroke-linejoin="round"/>
<path d="M140.865 216.92C141.583 220.299 142.998 230.522 142.998 227.062C142.998 224.673 141.239 222.444 140.884 220.055C140.761 219.22 141.016 216.751 140.331 216.183C139.863 215.794 144.29 219.369 145.467 220.055C147.614 221.308 149.153 223.648 151.017 221.161C151.912 219.968 154.545 219.803 154.908 219.502C157.541 217.317 157.299 214.057 157.911 211.205C158.128 210.187 157.575 214.678 157.575 215.999C157.575 217.688 157.869 219.924 158.306 221.51C158.926 223.762 158.678 217.405 158.088 216.183C157.131 214.197 157.219 212.434 157.219 210.283C157.219 209.433 163.163 220.082 162.118 220.895C161.681 221.235 155.861 219.57 154.098 220.157C152.58 220.664 151.193 221.255 149.753 222.001C149.359 222.206 148.71 222.949 148.963 222.739C149.866 221.99 152.627 219.942 151.531 220.321C150.024 220.842 148.545 222.354 147.185 223.19C144.623 224.765 143.794 224.545 142.721 227.246C142.567 227.635 144.48 227.586 144.855 227.697C147.545 228.494 149.236 226.32 151.61 225.32C154.673 224.029 158.196 221.378 161.486 220.977C163.969 220.674 160.193 219.771 160.064 219.502" stroke="#00ADB5" stroke-linecap="round" stroke-linejoin="round"/>
<path d="M276.675 74.9434C283.376 72.7155 294.228 70.1532 300.219 65.0685C301.307 64.1459 302.99 63.2615 302.609 61.4832C301.178 54.803 298.064 53.2363 291.924 53.9439C288.518 54.3365 285.249 57.595 282.087 58.9223C278.832 60.2888 275.576 62.0842 272.606 64.0442C269.601 66.0278 271.342 67.0104 271.342 70.4362C271.342 72.32 272.427 74.9434 274.364 74.9434C275.247 74.9434 277.778 74.2058 275.273 74.2058C273.307 74.2058 270.255 74.5149 268.498 73.5502C267.157 72.8136 269.805 71.3632 270.434 71.2762C272.681 70.9654 267.859 73.2454 267.372 73.4068C266.371 73.739 270.983 70.114 268.419 70.9689C265.64 71.8955 269.765 69.4106 270.631 68.9611C271.609 68.4538 270.756 69.257 270.987 68.8382C271.356 68.1681 273.493 65.7063 271.56 67.7114C270.912 68.3827 273.02 66.5665 273.732 65.97C275.073 64.8465 273.372 66.551 273.041 66.8304C271.516 68.1179 271.159 67.079 269.92 67.6499C269.403 67.8885 268.143 68.68 268.143 67.7524C268.143 66.1518 273.587 65.4227 274.582 65.3758C280.671 65.0887 284.933 62.3024 290.541 60.8481C293.24 60.1484 296.189 59.1405 298.718 57.898C300.594 56.9765 304.351 54.0914 306.343 54.6815C307.125 54.9134 295.052 62.1995 298.521 59.8238C301.39 57.8586 304.68 56.4786 300.377 60.1721C296.93 63.131 302.995 59.6844 303.479 59.8852C304.348 60.246 298.125 63.9323 302.866 61.6676C304.679 60.8015 306.185 60.7587 306.185 58.7175C306.185 55.9466 306.915 52.6625 303.518 53.9439C299.598 55.4226 296.451 58.5831 292.398 59.8238C289.603 60.6791 286.881 61.7591 284.141 62.7739C280.963 63.9515 275.209 65.2682 272.942 68.1416C271.734 69.6729 269.583 75.6407 274.029 73.0586C278.107 70.6897 278.756 65.8971 280.942 62.1184C282.027 60.2415 279.05 66.0826 278.611 68.2236C278.107 70.686 280.341 73.5197 282.897 73.0586C285.701 72.5527 288.651 68.5358 289.652 66.0929C294.463 54.351 285.736 65.7395 288.21 68.3055C290.836 71.0287 294.837 63.8148 295.361 62.0364C295.992 59.8936 296.363 57.2524 297.118 55.2141C298.099 52.5707 291.84 55.5479 291.252 55.8493C287.997 57.5179 285.724 59.7439 283.509 62.692C282.708 63.7591 279.49 68.782 281.692 69.924C284.643 71.4546 288.267 66.6973 288.349 64.2285C288.627 55.8656 281.988 60.1517 277.979 63.4295C275.502 65.455 277.654 69.5032 278.097 69.043" stroke="#00ADB5" stroke-linecap="round" stroke-linejoin="round"/>
<path d="M186.724 274.811C186.569 274.938 180.719 280.172 180.719 278.683C180.719 277.81 181.367 276.876 181.944 276.306C183.085 275.179 187.592 274.311 186.507 277.064C185.778 278.911 182.803 281.631 181.964 278.15C181.615 276.704 184.007 273.803 185.46 275.036C187.061 276.395 183.618 278.127 182.536 277.515C180.604 276.422 182.925 272.53 184.788 273.335C186.737 274.178 184.057 276.481 183.168 276.941C181.092 278.018 181.383 276.277 180.324 275.179" stroke="#00ADB5" stroke-linecap="round" stroke-linejoin="round"/>
<path d="M90.3772 274.439C92.4266 277.942 96.33 281.577 92.3524 284.765C91.3264 285.587 85.2742 288.875 85.6368 285.052C86.0783 280.396 92.7678 280.292 93.1819 276.119C93.5915 271.992 84.0893 273.547 81.9234 270.752C80.5666 269 79.4724 265.119 79.7902 262.884C79.914 262.014 82.0417 260.325 81.8246 261.901C81.4273 264.786 72.4586 272.177 77.7755 274.603C81.3403 276.23 82.26 272.111 84.8862 271.12C90.2957 269.08 82.1999 284.213 82.1999 280.34" stroke="#00ADB5" stroke-linecap="round" stroke-linejoin="round"/>
<path d="M264.588 322.384C262.942 326.425 259.611 338.879 259.611 334.491C259.611 333.808 259.738 333.267 259.966 332.627C261.037 329.623 262.276 326.827 264.075 324.186C265.057 322.745 266.227 318.525 267.63 321.728C268.285 323.222 270.158 327.383 269.368 329.021C268.377 331.078 265.298 332.258 263.245 332.34C262.711 332.362 257.102 333.126 258.92 331.398C261.055 329.367 263.122 323.191 266.346 322.773C266.844 322.708 267.884 323.053 268.321 323.305C269.092 323.749 268.153 324.551 267.788 325.17C267.35 325.912 263.884 330.927 263.877 330.701C263.779 327.341 267.103 322.462 268.894 319.925C269.537 319.015 266.119 325.19 265.339 326.583C264.735 327.662 265.523 329.953 262.811 329.39" stroke="#00ADB5" stroke-linecap="round" stroke-linejoin="round"/>
<path d="M154.373 25.8921C152.787 32.3287 151.373 38.4615 150.798 45.0272C150.74 45.6839 150.34 46.1085 150.739 46.6252C151.332 47.3941 152.9 42.5051 153.504 41.1961C155.417 37.0469 157.573 35.4095 157.573 30.3173C157.573 29.5826 157.573 25.3535 157.573 28.1457C157.573 30.5162 158.006 32.8591 157.849 35.2343C157.731 37.0295 156.069 41.8743 157.296 40.6019C159.19 38.638 157.673 28.7911 154.709 28.5349C150.663 28.1853 148.712 37.2809 148.25 40.1102C147.712 43.4022 149.949 44.7803 152.417 42.2204C155.786 38.7264 156.517 31.5429 153.622 27.4491C149.646 21.8249 147.037 31.9729 146.709 34.4558C145.969 40.0721 148.993 41.8718 152.575 37.8771C153.893 36.4079 156.55 33.8674 155.993 31.5875C155.251 28.5549 150.93 31.4998 150.067 32.8168C148.844 34.6843 148.86 39.336 150.837 40.6634C152.684 41.9027 154.481 36.7674 154.274 35.4801C153.397 30.0209 143.476 38.6872 148.408 41.7902C152.7 44.4909 155.546 32.4086 150.264 33.9026C148.794 34.3187 145.301 38.4303 148.329 38.4303" stroke="#00ADB5" stroke-linecap="round" stroke-linejoin="round"/>
<path d="M60.1585 130.99C58.5609 135.685 57.4107 138.682 53.3639 141.316C52.3478 141.977 51.005 143.147 50.7961 144.471C50.3498 147.3 54.652 150.418 57.097 149.572C62.2487 147.791 54.453 142.502 53.6206 140.968C52.1715 138.295 57.4091 133.495 59.8227 134.903C61.7014 135.999 62.5343 139.819 61.4226 141.685C59.8032 144.402 56.3224 144.509 53.6009 144.082C51.4335 143.741 47.0921 144.204 48.3667 147.544C49.9615 151.723 57.4888 149.533 58.6179 145.987C59.7171 142.535 53.7661 141.234 55.0428 137.997C55.9197 135.773 58.6887 132.998 61.1461 132.998C64.0896 132.998 61.15 138.701 60.7115 139.595C58.7752 143.543 55.8124 143.936 52.0603 145.004C44.9983 147.012 52.6061 147.295 53.0478 145.004" stroke="#00ADB5" stroke-linecap="round" stroke-linejoin="round"/>
<path d="M51.6246 181.514C50.8699 184.462 48.6385 189.493 48.8594 192.7C48.9628 194.203 49.3587 189.73 49.5309 188.234C49.8591 185.383 50.2345 182.164 51.7036 179.67C51.9644 179.228 57.9943 187.035 58.5377 188.316C59.9921 191.745 58.1713 191.092 55.891 192.209C54.6237 192.829 45.9756 195.996 45.9756 195.159C45.9756 194.282 47.606 192.5 47.9903 191.758C49.1932 189.437 50.4838 186.522 50.9925 183.932C52.0791 178.399 51.2691 189.785 51.2691 190.652C51.2691 191.178 51.4663 194.257 50.2815 194.257C48.7987 194.257 51.2839 191.362 51.7826 189.914C52.3115 188.378 54.4166 183.851 53.8961 182.231C53.1588 179.937 52.7899 186.964 52.711 189.381C52.6574 191.02 51.8932 193.754 53.1257 191.102C53.5185 190.257 54.7863 186.793 54.7651 187.046C54.5864 189.178 53.7578 191.376 53.7578 193.52C53.7578 195.714 54.8737 188.65 56.7996 187.742C57.2784 187.517 56.6021 191.681 56.6021 192.291C56.6021 193.401 57.6292 188.026 57.6292 189.136C57.6292 189.445 57.203 191.315 56.8786 190.734C55.549 188.351 54.5486 186.879 51.8221 186.021C50.5804 185.631 46.6334 185.899 47.931 185.899C48.784 185.899 50.1236 182.82 51.0716 183.624C52.3293 184.692 50.6032 188.099 50.2025 189.258C49.5464 191.157 49.1356 188.487 50.7555 188.685C52.4434 188.891 50.7214 195.355 51.6641 193.889C52.1017 193.208 53.427 189.849 53.3825 190.242C52.5219 197.829 52.701 188.167 54.1133 190.365" stroke="#00ADB5" stroke-linecap="round" stroke-linejoin="round"/>
<path d="M227.614 81.2065C232.138 80.9748 236.506 82.7094 235.791 77.1501C235.437 74.3953 233.949 69.8918 234.725 67.1933C235.549 64.3283 240.606 57.8672 236.285 55.8433C232.662 54.1461 227.927 58.9455 227.259 62.1944C226.981 63.5456 227.04 67.7669 229.194 67.7669C230.822 67.7669 231.862 66.109 233.283 67.5825C235.14 69.5088 235.472 71.2661 234.152 73.6877C230.984 79.5005 218.453 73.0079 225.204 66.005C226.13 65.0451 229.79 60.643 231.525 61.9075C233.912 63.6473 233.589 68.1768 232.355 70.4302C231.124 72.6774 226.606 75.0304 224.829 72.1512C223.951 70.7283 224.371 69.7746 225.836 69.7746" stroke="#00ADB5" stroke-linecap="round" stroke-linejoin="round"/>
<path d="M265.488 115.717C265.905 115.542 278.912 108.882 278.307 112.542C277.982 114.506 278.199 116.337 278.465 118.299C278.567 119.049 280.33 124.895 278.564 124.895C275.273 124.895 272.061 123.181 268.767 123.83C267.401 124.099 264.681 125.07 264.579 122.806C264.503 121.108 263.143 113.476 266.377 114.222C269.042 114.836 269.158 112.642 267.266 117.52C266.997 118.213 265.232 123.415 265.528 123.174C268.485 120.764 270.107 116.13 272.816 113.32C274.507 111.566 271.608 118.607 271.256 119.487C269.456 123.981 274.056 115.678 274.574 114.857C276.847 111.25 275.121 117.707 274.771 118.77C273.72 121.965 276.953 115.999 278.248 115.205C282.538 112.575 278.485 121.658 277.576 119.774" stroke="#00ADB5" stroke-linecap="round" stroke-linejoin="round"/>
<path d="M230.457 185.205C230.661 190.625 230.57 193.583 235 190.163C236.257 189.193 235.723 191.488 235.415 192.048C234.9 192.982 231.881 197.68 234.921 195.879C235.69 195.423 237.765 194.512 237.765 196.268C237.765 196.545 236.835 199.937 237.745 198.993C239.238 197.445 239.264 191.611 239.345 189.344C239.363 188.849 239.571 188.273 239.148 188.524C236.968 189.816 235.934 196.578 234.802 199.218C233.826 201.497 231.01 198.812 229.39 197.743C226.32 195.717 228.251 197.156 228.324 197.006" stroke="#00ADB5" stroke-linecap="round" stroke-linejoin="round"/>
<path d="M205.927 233.516C205.913 233.687 205.496 244.274 205.571 239.129C205.594 237.559 205.55 235.987 205.571 234.417C205.63 229.957 206.397 232.026 208.257 233.864C209.11 234.706 212.239 236.525 211.734 238.228C211.585 238.729 206.562 239.636 205.769 239.949C205.173 240.183 201.66 242.477 201.66 242.366C201.66 239.626 202.591 236.661 202.905 233.925C203.569 228.133 207.433 243.638 207.684 239.723C207.744 238.801 207.704 233.316 207.704 234.683C207.704 235.702 208.415 241.133 208.415 237.572C208.415 236.766 208.415 235.96 208.415 235.155C208.415 234.774 208.615 236.593 208.751 236.24C209.244 234.963 208.415 232.394 208.415 235.523C208.415 239.036 207.466 236.507 205.393 236.507C203.62 236.507 202.605 243.247 203.517 241.669C204.316 240.288 202.742 234.663 203.438 237.552C203.802 239.063 204.678 237.392 205.215 236.834" stroke="#00ADB5" stroke-linecap="round" stroke-linejoin="round"/>
<rect x="102.783" y="288.676" width="38.4308" height="79.3212" rx="3.51536" fill="#00ADB5" stroke="black" stroke-width="1.64486" stroke-linejoin="round"/>
<rect x="2.24707" y="311.582" width="38.4308" height="56.4165" rx="3.51536" fill="#EEEEEE" stroke="black" stroke-width="1.64486" stroke-linejoin="round"/>
<rect x="180.567" y="200.746" width="38.4308" height="167.251" rx="3.51536" fill="#00ADB5" stroke="black" stroke-width="1.64486" stroke-linejoin="round"/>
<path d="M53.2038 180.386L92.7169 180.386C92.7169 180.386 86.4195 237.936 77.8489 247.372C69.2783 256.807 24.4228 282.683 24.4228 282.683L9.31666 273.412L37.4776 229.062C37.4776 229.062 34.3807 211.767 53.2038 180.386Z" fill="#00ADB5" stroke="black" stroke-width="1.39887"/>
<path d="M25.0612 282.161L9.31635 273.411L1.34778 281.99C1.34778 281.99 14.781 289.777 24.1531 292.828L20.1838 287.593L25.0612 282.161Z" fill="#EEEEEE" stroke="black" stroke-width="1.39887" stroke-linejoin="round"/>
<path d="M53.3725 179.545L96.5455 179.488C96.5455 179.488 120.545 200.593 123.569 212.976C126.593 225.359 123.145 270.298 123.145 270.298L105.695 278.012L87.6811 230.547C87.6811 230.547 68.8468 212.705 53.3725 179.545Z" fill="#00ADB5"/>
<path d="M53.3725 179.545L53.3716 178.846C53.1327 178.846 52.9105 178.968 52.7823 179.17C52.6541 179.371 52.6377 179.624 52.7387 179.841L53.3725 179.545ZM96.5455 179.488L97.0074 178.963L96.8089 178.788L96.5446 178.789L96.5455 179.488ZM123.145 270.298L123.427 270.937L123.81 270.768L123.842 270.351L123.145 270.298ZM105.695 278.012L105.041 278.261L105.303 278.951L105.978 278.652L105.695 278.012ZM87.6811 230.547L88.3351 230.298L88.2783 230.149L88.1622 230.039L87.6811 230.547ZM53.3734 180.244L96.5464 180.188L96.5446 178.789L53.3716 178.846L53.3734 180.244ZM122.862 269.658L105.413 277.373L105.978 278.652L123.427 270.937L122.862 269.658ZM106.349 277.764L88.3351 230.298L87.0272 230.795L105.041 278.261L106.349 277.764ZM87.6811 230.547C88.1622 230.039 88.1622 230.039 88.1622 230.039C88.1621 230.039 88.162 230.039 88.1618 230.039C88.1614 230.038 88.1607 230.038 88.1597 230.037C88.1578 230.035 88.1547 230.032 88.1505 230.028C88.1421 230.02 88.1292 230.007 88.1118 229.991C88.0771 229.957 88.0246 229.906 87.9552 229.838C87.8163 229.702 87.6093 229.497 87.3395 229.224C86.8001 228.677 86.0099 227.857 85.0122 226.768C83.0167 224.591 80.1917 221.339 76.8833 217.053C70.2662 208.481 61.718 195.775 54.0063 179.249L52.7387 179.841C60.5012 196.475 69.1074 209.269 75.776 217.908C79.1105 222.228 81.9612 225.509 83.9808 227.713C84.9906 228.815 85.7927 229.648 86.3437 230.206C86.6192 230.486 86.832 230.696 86.9765 230.838C87.0488 230.909 87.104 230.962 87.1415 230.998C87.1602 231.016 87.1746 231.03 87.1844 231.039C87.1893 231.044 87.193 231.048 87.1957 231.05C87.197 231.051 87.198 231.052 87.1988 231.053C87.1991 231.053 87.1995 231.054 87.1997 231.054C87.1999 231.054 87.2001 231.054 87.6811 230.547ZM96.5455 179.488C96.0836 180.013 96.0837 180.013 96.0838 180.013C96.0839 180.014 96.0842 180.014 96.0845 180.014C96.0851 180.015 96.0861 180.016 96.0875 180.017C96.0903 180.019 96.0945 180.023 96.1001 180.028C96.1113 180.038 96.1282 180.053 96.1506 180.073C96.1955 180.112 96.2624 180.172 96.3499 180.25C96.5251 180.406 96.7829 180.638 97.1125 180.937C97.7716 181.535 98.7174 182.405 99.8622 183.487C102.152 185.653 105.236 188.667 108.412 192.066C111.59 195.466 114.852 199.241 117.503 202.928C120.165 206.629 122.167 210.181 122.89 213.142L124.249 212.81C123.46 209.58 121.327 205.85 118.639 202.111C115.94 198.358 112.634 194.535 109.434 191.111C106.233 187.685 103.128 184.65 100.823 182.471C99.6708 181.381 98.718 180.505 98.0528 179.901C97.7202 179.599 97.4595 179.365 97.2816 179.206C97.1926 179.127 97.1244 179.066 97.0782 179.025C97.0552 179.005 97.0376 178.99 97.0257 178.979C97.0198 178.974 97.0153 178.97 97.0122 178.967C97.0107 178.966 97.0095 178.965 97.0087 178.964C97.0083 178.964 97.008 178.963 97.0078 178.963C97.0075 178.963 97.0074 178.963 96.5455 179.488ZM122.89 213.142C123.625 216.153 123.977 221.212 124.079 227.169C124.181 233.105 124.034 239.869 123.792 246.254C123.55 252.638 123.214 258.636 122.938 263.039C122.8 265.24 122.677 267.042 122.589 268.293C122.545 268.919 122.509 269.407 122.485 269.738C122.473 269.904 122.463 270.031 122.457 270.116C122.454 270.158 122.451 270.191 122.45 270.212C122.449 270.223 122.448 270.231 122.448 270.236C122.448 270.239 122.447 270.241 122.447 270.242C122.447 270.243 122.447 270.243 122.447 270.244C122.447 270.244 122.447 270.244 123.145 270.298C123.842 270.351 123.842 270.351 123.842 270.351C123.842 270.35 123.842 270.35 123.842 270.349C123.842 270.348 123.842 270.346 123.843 270.343C123.843 270.337 123.844 270.329 123.844 270.318C123.846 270.296 123.849 270.264 123.852 270.221C123.858 270.135 123.868 270.008 123.88 269.841C123.905 269.509 123.94 269.019 123.985 268.392C124.073 267.137 124.196 265.332 124.334 263.126C124.61 258.716 124.947 252.706 125.19 246.307C125.432 239.91 125.58 233.117 125.478 227.145C125.376 221.193 125.025 215.99 124.249 212.81L122.89 213.142Z" fill="black"/>
<path fill-rule="evenodd" clip-rule="evenodd" d="M91.239 109.142C92.2202 108.783 93.1545 108.26 94.0072 107.534C100.449 102.046 97.6866 93.7658 93.7882 89.4552C89.8898 85.1445 66.0416 86.8639 77.2917 106.833C77.3401 106.863 77.3895 106.892 77.4399 106.922C78.6962 110.923 77.6357 114.355 76.3633 118.473C75.8442 120.152 75.2898 121.947 74.8431 123.94L86.7747 123.085C90.0542 118.632 91.2976 114.143 91.239 109.142Z" fill="#F5B9AB"/>
<path d="M94.0072 107.534L94.5405 108.16L94.5405 108.16L94.0072 107.534ZM91.239 109.142L90.957 108.369C90.6292 108.489 90.4126 108.802 90.4167 109.151L91.239 109.142ZM93.7882 89.4552L94.3982 88.9035L94.3982 88.9035L93.7882 89.4552ZM77.2917 106.833L76.5751 107.237C76.6449 107.361 76.7456 107.465 76.8673 107.538L77.2917 106.833ZM77.4399 106.922L78.2245 106.675C78.1634 106.481 78.0322 106.316 77.8563 106.212L77.4399 106.922ZM76.3633 118.473L75.5775 118.23L75.5775 118.23L76.3633 118.473ZM74.8431 123.94L74.0406 123.76C73.9837 124.014 74.0502 124.28 74.2199 124.477C74.3896 124.674 74.6425 124.779 74.9019 124.76L74.8431 123.94ZM86.7747 123.085L86.8335 123.905C87.0737 123.888 87.2942 123.767 87.437 123.573L86.7747 123.085ZM93.4738 106.908C92.7002 107.567 91.8522 108.042 90.957 108.369L91.5211 109.914C92.5882 109.524 93.6089 108.953 94.5405 108.16L93.4738 106.908ZM93.1782 90.0068C95.0317 92.0563 96.6077 95.0486 96.958 98.1453C97.3039 101.204 96.4604 104.363 93.4738 106.908L94.5405 108.16C97.9955 105.216 98.9917 101.491 98.5924 97.9604C98.1974 94.4676 96.4431 91.1646 94.3982 88.9035L93.1782 90.0068ZM78.0082 106.43C75.251 101.536 74.728 97.9051 75.3735 95.2839C76.0135 92.6849 77.8471 90.9016 80.2112 89.7826C82.5868 88.658 85.4416 88.2376 87.9421 88.3651C89.1889 88.4287 90.3228 88.6273 91.2442 88.9272C92.1808 89.2321 92.8269 89.6183 93.1782 90.0068L94.3982 88.9035C93.775 88.2144 92.823 87.7113 91.7532 87.3631C90.6682 87.01 89.3873 86.7918 88.0258 86.7224C85.31 86.5839 82.1748 87.0332 79.5074 88.2959C76.8284 89.564 74.5656 91.6855 73.7764 94.8906C72.9926 98.0735 73.7073 102.146 76.5751 107.237L78.0082 106.43ZM77.8563 106.212C77.8086 106.184 77.7618 106.156 77.716 106.129L76.8673 107.538C76.9185 107.569 76.9705 107.6 77.0234 107.631L77.8563 106.212ZM77.1491 118.715C78.4108 114.632 79.5688 110.956 78.2245 106.675L76.6552 107.168C77.8236 110.889 76.8606 114.077 75.5775 118.23L77.1491 118.715ZM75.6457 124.12C76.0842 122.163 76.6291 120.398 77.1491 118.715L75.5775 118.23C75.0593 119.907 74.4954 121.73 74.0406 123.76L75.6457 124.12ZM86.716 122.265L74.7843 123.12L74.9019 124.76L86.8335 123.905L86.716 122.265ZM90.4167 109.151C90.4733 113.987 89.2784 118.298 86.1125 122.597L87.437 123.573C90.8301 118.965 92.1219 114.299 92.0614 109.132L90.4167 109.151Z" fill="black"/>
<path d="M75.1481 94.7664C73.281 97.364 75.292 103.78 76.7758 105.384C64.4811 98.5623 72.2647 83.1705 76.0582 85.9773C76.6764 80.2867 83.2061 78.279 87.6573 83.0917C98.8173 74.0793 99.4044 89.4361 95.4654 91.7716C91.5263 94.107 86.7473 91.8829 84.2671 93.0872C81.7869 94.2915 80.2564 101.586 79.453 97.5377C78.6496 93.4889 77.4819 91.5193 75.1481 94.7664Z" fill="#00ADB5" stroke="black" stroke-width="1.64486"/>
<path d="M97.984 180.473C110.852 171.914 105.482 142.339 103.651 133.93C103.322 132.417 102.834 130.966 102.243 129.535C97.3783 117.776 85.3777 108.305 73.8842 113.767C49.4029 125.402 53.0424 162.515 53.2735 180.751L97.984 180.473Z" fill="#EEEEEE" stroke="black" stroke-width="1.64486" stroke-linejoin="round"/>
<path d="M136.694 140.454L126.365 127.849L91.5638 152.198L80.3156 129.557L65.7507 152.198C65.7507 152.198 81.5294 176.704 89.5448 175.992C104.152 174.694 136.694 140.454 136.694 140.454Z" fill="#EEEEEE"/>
<path d="M81.0815 131.206L91.4609 151.5L126.36 127.847L136.689 140.451C136.689 140.451 106.012 174.48 88.0846 176.073C82.4424 176.574 66.0043 151.95 66.0043 151.95" stroke="black" stroke-width="1.64486"/>
<path d="M129.795 125.575L125.704 128.201L135.973 141.212L139.203 138.595C142.64 135.811 143.184 130.775 140.422 127.321C137.849 124.104 133.262 123.35 129.795 125.575Z" fill="#F5B9AB" stroke="black" stroke-width="1.64486" stroke-linejoin="round"/>
<path d="M123.358 268.659L105.697 277.866L108.735 289.372L132.316 274.85L125.377 275.792L123.358 268.659Z" fill="#EEEEEE" stroke="black" stroke-width="1.39887" stroke-linejoin="round"/>
</svg>
