<svg width="17" height="15" viewBox="0 0 17 15" fill="none" xmlns="http://www.w3.org/2000/svg">
<path d="M3.25025 8.56C3.24782 9.31022 3.46624 10.0503 3.88774 10.72C4.38751 11.5224 5.15581 12.1973 6.10659 12.6692C7.05736 13.141 8.15307 13.3911 9.27097 13.3915C10.2059 13.3934 11.1281 13.2181 11.9626 12.8799L16 13.9599L14.6542 10.72C15.0757 10.0503 15.2941 9.31022 15.2917 8.56C15.2912 7.66291 14.9796 6.78364 14.3916 6.02067C13.8036 5.25769 12.9625 4.64115 11.9626 4.2401C11.1281 3.90186 10.2059 3.72658 9.27097 3.72853H8.91681C7.44042 3.79389 6.04596 4.29396 5.00041 5.13299C3.95486 5.97201 3.3317 7.09104 3.25025 8.2758V8.56Z" fill="black" stroke="black" stroke-width="1.5" stroke-linecap="round" stroke-linejoin="round"/>
<path d="M13.7497 5.83148C13.7522 6.58171 13.5338 7.32178 13.1123 7.99144C12.6125 8.79388 11.8442 9.46883 10.8934 9.94067C9.94264 10.4125 8.84693 10.6626 7.72903 10.663C6.79415 10.6649 5.8719 10.4896 5.03742 10.1514L1 11.2314L2.34581 7.99144C1.92431 7.32178 1.70588 6.58171 1.70832 5.83148C1.70875 4.9344 2.02041 4.05512 2.60839 3.29215C3.19638 2.52918 4.03745 1.91263 5.03742 1.51158C5.8719 1.17334 6.79415 0.99806 7.72903 1.00002H8.08319C9.55958 1.06538 10.954 1.56545 11.9996 2.40447C13.0451 3.2435 13.6683 4.36252 13.7497 5.54728V5.83148Z" fill="white" stroke="black" stroke-width="1.5" stroke-linecap="round" stroke-linejoin="round"/>
</svg>
